<?xml version="1.0" encoding="UTF-8"?>
<svg version="1.1" xmlns="http://www.w3.org/2000/svg" width="1024" height="1024">
<path d="M0 0 C20.51467733 -0.02814085 41.02833579 0.0044009 61.54232025 0.18390656 C66.1271894 0.22363212 70.71185351 0.25577117 75.296875 0.27099609 C79.82926634 0.2862829 84.36115347 0.32085487 88.89331818 0.36830902 C90.58819439 0.38290647 92.28314189 0.39102823 93.97808075 0.39188385 C108.00793163 0.40613999 121.71068432 1.94655075 134.3125 8.6875 C135.29984131 9.20123169 135.29984131 9.20123169 136.30712891 9.7253418 C156.2207547 20.46431955 169.24191359 38.77670094 176 60 C179.23624661 71.9957648 179.39737054 83.58367286 179.29296875 95.93359375 C179.28735925 97.90755386 179.28309557 99.8815182 179.28010559 101.85548401 C179.26876329 106.99944 179.23939009 112.14313355 179.20599365 117.2869873 C179.16960313 123.48634672 179.15608098 129.6857949 179.13863373 135.88523102 C179.10974438 145.25700206 179.05218367 154.62819959 179 164 C166.46 164 153.92 164 141 164 C140.99589111 161.28112549 140.99178223 158.56225098 140.98754883 155.76098633 C140.9702831 146.73638201 140.92566789 137.71205819 140.86790943 128.68762684 C140.83374794 123.22081423 140.80854635 117.75427787 140.80444336 112.28735352 C140.80013713 107.0026797 140.77148256 101.71862792 140.72656822 96.43414879 C140.71366722 94.42697472 140.70925902 92.41972593 140.71384621 90.41251564 C140.74019074 75.37250309 139.58153695 63.12974618 129.30078125 51.22265625 C122.9907606 45.12689776 115.49971287 41.08483523 107 39 C106.33712479 38.82876114 105.67424957 38.65752228 104.99128723 38.48109436 C100.68426024 37.7883871 96.42526972 37.82146962 92.0690918 37.79467773 C91.07349747 37.78477814 90.07790314 37.77487854 89.05213928 37.76467896 C85.76785647 37.73314157 82.48355919 37.70833717 79.19921875 37.68359375 C76.91949593 37.66301753 74.63977688 37.64202088 72.36006165 37.62062073 C66.36452277 37.56546913 60.36894986 37.51602935 54.37335205 37.46777344 C48.2534279 37.41750795 42.13355308 37.36184824 36.01367188 37.30664062 C24.00915519 37.19914357 12.00459652 37.09817839 0 37 C0 24.79 0 12.58 0 0 Z " fill="#f88379" transform="translate(742,105)"/>
<path d="M0 0 C0 12.54 0 25.08 0 38 C-3.03227783 37.98428955 -6.06455566 37.9685791 -9.1887207 37.95239258 C-19.23495217 37.90256527 -29.28118926 37.86949857 -39.32751179 37.84456348 C-45.41542946 37.82894301 -51.50321996 37.80777087 -57.59106445 37.77368164 C-63.47198414 37.74095916 -69.35278189 37.7231198 -75.23378563 37.71536827 C-77.47153834 37.70984786 -79.70928478 37.69906811 -81.94698524 37.68280983 C-85.0941139 37.66086435 -88.24074595 37.65804022 -91.38793945 37.65942383 C-92.30216675 37.648638 -93.21639404 37.63785217 -94.1583252 37.6267395 C-107.39764983 37.68925504 -120.5455153 42.5455153 -130 52 C-138.81644297 62.68071284 -142.10328038 73.77465267 -142.20532227 87.48388672 C-142.21522186 88.31381638 -142.22512146 89.14374603 -142.23532104 89.99882507 C-142.26675812 92.72575079 -142.29162268 95.45269389 -142.31640625 98.1796875 C-142.33699116 100.07683754 -142.35798803 101.97398315 -142.37937927 103.87112427 C-142.43444119 108.85229902 -142.4839202 113.83351407 -142.53222656 118.8147583 C-142.59141485 124.79790634 -142.65755506 130.78098111 -142.72252655 136.7640686 C-142.82033613 145.84266746 -142.90932889 154.9213144 -143 164 C-155.21 164 -167.42 164 -180 164 C-180.08021762 143.38852854 -180.08021762 143.38852854 -180.09765625 134.51757812 C-180.10955377 128.49418559 -180.12353925 122.47085459 -180.15087891 116.44750977 C-180.17281037 111.58454278 -180.18461087 106.7216419 -180.18975449 101.85862923 C-180.19341416 100.01494368 -180.20055906 98.17126124 -180.21146011 96.32760429 C-180.36871062 68.59778414 -175.17874028 44.15696036 -155.50048828 23.49316406 C-137.52310241 5.60352983 -114.8339743 0.40217001 -90.21484375 0.390625 C-88.34223552 0.37557741 -86.46964022 0.35883706 -84.59706116 0.34051514 C-79.70207072 0.29719634 -74.80725703 0.27695028 -69.91210938 0.26177979 C-64.99663377 0.24231395 -60.08135961 0.20010799 -55.16601562 0.16015625 C-36.77753921 0.01851998 -18.38898585 -0.03282282 0 0 Z " fill="#f88379" transform="translate(283,105)"/>
<path d="M0 0 C19.23719096 15.8318497 23.09291476 38.74349187 26.4765625 62.01171875 C26.60694412 62.90317596 26.73732574 63.79463318 26.87165833 64.71310425 C27.53442158 69.25665612 28.1824724 73.80153403 28.80639648 78.35058594 C29.04903322 80.05537887 29.29194186 81.76013313 29.53515625 83.46484375 C29.63821075 84.25058273 29.74126526 85.03632172 29.84744263 85.84587097 C30.47839305 90.18338081 31.28994847 93.4140681 34 97 C36.84968834 98.42484417 39.32889992 98.16442315 42.51171875 98.2109375 C43.82720703 98.23929687 45.14269531 98.26765625 46.49804688 98.296875 C48.58682632 98.33795131 50.67538664 98.37484622 52.7644043 98.40136719 C54.78481277 98.42922495 56.80420925 98.47511259 58.82421875 98.5234375 C60.03166748 98.54325684 61.23911621 98.56307617 62.4831543 98.58349609 C66.98153767 99.11624459 71.43783997 100.17747996 74.5 103.75 C75.26121155 107.17545197 74.90581342 109.61829657 74 113 C71.80489259 115.51447754 70.055834 116.8325221 66.71899414 117.36181641 C63.99528149 117.51123678 61.29028254 117.56061487 58.5625 117.5625 C49.86574791 117.52919691 49.86574791 117.52919691 42 121 C38.52244798 125.05714402 38.6931414 128.90734367 39 134 C39.49558163 138.44945608 40.15454513 142.87051701 40.82006836 147.29736328 C41.0159809 148.62862014 41.21138633 149.9599517 41.40632629 151.29135132 C41.93425993 154.88698621 42.46927947 158.48153404 43.00565028 162.07591867 C43.56713899 165.84679366 44.12213661 169.61862393 44.6778717 173.39035034 C45.61148837 179.72059205 46.54923689 186.05020965 47.48999023 192.37939453 C48.81526541 201.29557252 50.1333902 210.21279634 51.44992626 219.13026834 C53.21543006 231.08649197 54.98319757 243.04238563 56.75886345 254.99710464 C57.04169681 256.90188944 57.32403331 258.806748 57.60635376 260.71160889 C57.77601151 261.85262054 57.94566925 262.9936322 58.12046814 264.16921997 C58.34031577 265.64970416 58.34031577 265.64970416 58.56460476 267.16009712 C58.87413117 269.17900975 59.20252119 271.19506967 59.54378605 273.2088604 C61.09611876 282.706109 59.41839594 291.95375892 57.6875 301.3125 C57.47416016 302.54806641 57.26082031 303.78363281 57.04101562 305.05664062 C55.52306427 313.45295066 54.31874595 319.85709744 47 325 C45.40819502 323.40819502 45.62591534 321.61064692 45.38275146 319.40420532 C45.27056526 318.40902515 45.15837906 317.41384499 45.04279327 316.38850784 C44.86257252 314.73560808 44.86257252 314.73560808 44.67871094 313.04931641 C44.40892726 310.65470083 44.13883125 308.26012042 43.86846924 305.86557007 C43.72511391 304.58385296 43.58175858 303.30213585 43.43405914 301.98157883 C40.80340994 278.49879967 37.90639781 255.05985549 34.703125 231.6484375 C34.61232855 230.98465119 34.5215321 230.32086489 34.42798424 229.63696384 C33.32499368 221.57974004 32.21158496 213.52397501 31.09394217 205.46877217 C30.33064252 199.96455515 29.57390992 194.45945039 28.81881261 188.95410287 C27.98152273 182.84972592 27.1412292 176.74576679 26.29915619 170.64204788 C25.94939556 168.10594945 25.60017873 165.56977595 25.25156403 163.03351974 C24.32848468 156.32741073 23.39108218 149.62372789 22.42182922 142.92412567 C22.14768903 141.02378225 21.87732453 139.12288897 21.6113739 137.22138214 C21.26061893 134.73317847 20.89097731 132.2486059 20.51464844 129.76416016 C20.37195715 128.7179075 20.37195715 128.7179075 20.22638321 127.65051842 C19.31948058 121.92031379 17.25435014 117.16097469 13.01953125 113.1015625 C9.04143685 110.93169283 5.38259256 111.19194196 1 112 C-2.25147434 113.31566506 -5.36114728 114.71840535 -8.4699707 116.33349609 C-18.60521991 121.57047227 -29.94296983 122.67980529 -41.12890625 120.34765625 C-54.2519913 115.99818425 -65.93108345 105.87517594 -72.65625 93.86328125 C-82.91249423 72.00913294 -83.81837839 47.74982142 -75.75 25.0625 C-73.2803569 19.10103524 -69.9785802 14.05555605 -66 9 C-65.37222656 8.1646875 -64.74445313 7.329375 -64.09765625 6.46875 C-47.01959507 -13.63056967 -20.49984251 -14.2390798 0 0 Z M-54.1875 21.3125 C-64.20598011 36.16748775 -66.5956831 53.62121744 -63.34375 71.1484375 C-60.06630605 83.9474212 -53.03737703 94.30322484 -41.8125 101.37890625 C-35.22471808 104.75514449 -28.49619653 105.18390974 -21.359375 103.3046875 C-10.99450902 99.52119348 -3.27884566 93.01182506 1.41015625 82.984375 C8.2198843 66.22807624 9.09071362 48.70210768 2.74609375 31.625 C-2.06925045 21.33827017 -8.31346903 13.78002162 -18.78125 9.03515625 C-33.59268674 4.27176943 -44.28752112 10.84680804 -54.1875 21.3125 Z " fill="#f88379" transform="translate(465,168)"/>
<path d="M0 0 C14.92205156 10.17033682 22.58245801 25.24590222 26.375 42.54296875 C29.23264383 65.32474041 26.45861804 86.79524757 12.8515625 105.59375 C5.5852761 114.30152642 -4.88788977 121.73565426 -16.203125 123.90625 C-29.22587129 124.96500986 -40.02782247 122.96239507 -51.578125 116.59375 C-55.98325615 114.5430855 -59.42798334 113.88932168 -64.203125 114.90625 C-68.93176822 117.88354388 -71.02990276 120.8446071 -73.203125 125.90625 C-73.81961629 128.67326692 -74.32521673 131.34872801 -74.73950195 134.14404297 C-74.86820616 134.95822819 -74.99691036 135.77241341 -75.12951469 136.6112709 C-75.55621944 139.33050944 -75.96782211 142.05179687 -76.37890625 144.7734375 C-76.68118677 146.72777845 -76.98404265 148.68203049 -77.28742981 150.63619995 C-80.79056711 173.32886586 -84.08066152 196.0545443 -87.34741211 218.78222656 C-88.0447511 223.63332664 -88.74566573 228.48388794 -89.44995117 233.33398438 C-95.37130778 274.04989305 -95.37130778 274.04989305 -100.203125 314.90625 C-100.30665787 315.8751416 -100.41019073 316.8440332 -100.51686096 317.84228516 C-101.15063169 324.1769962 -101.30994631 330.43407426 -101.31640625 336.796875 C-101.3614688 339.86638004 -101.41699349 342.9355758 -101.47387695 346.00488281 C-101.50180161 348.11278648 -101.50980779 350.2210444 -101.49829102 352.32910156 C-101.4308425 370.07494459 -101.4308425 370.07494459 -105.91552734 374.70898438 C-109.18359375 376.515625 -109.18359375 376.515625 -112.44213867 377.68652344 C-115.34898103 378.62738737 -115.34898103 378.62738737 -116.35101318 381.10745239 C-117.27898821 384.15542594 -117.51222569 386.72332758 -117.59790039 389.90673828 C-117.63459335 391.10487152 -117.67128632 392.30300476 -117.70909119 393.53744507 C-117.73934891 394.83735382 -117.76960663 396.13726257 -117.80078125 397.4765625 C-117.8393328 398.85627348 -117.87866225 400.23596292 -117.91871643 401.6156311 C-118.02381402 405.32033715 -118.1171753 409.0252533 -118.20807648 412.73033142 C-118.28477508 415.79691297 -118.36835904 418.86329013 -118.45205307 421.9296875 C-119.18797924 448.91842372 -119.753087 475.91128764 -120.203125 502.90625 C-120.863125 502.90625 -121.523125 502.90625 -122.203125 502.90625 C-125.44282725 495.59615261 -126.31647323 488.3041302 -127.265625 480.40625 C-127.42611328 479.16488281 -127.58660156 477.92351562 -127.75195312 476.64453125 C-131.52503656 446.42955784 -132.30970111 416.05600025 -133.10302734 385.64630127 C-133.20069992 381.99686083 -133.30851625 378.34783419 -133.41796875 374.69873047 C-133.58004563 369.11961492 -133.69603862 363.54133831 -133.77532959 357.96044922 C-133.81019768 355.90206281 -133.85864315 353.84385631 -133.92144775 351.78613281 C-134.43951172 334.09550439 -134.43951172 334.09550439 -129.3515625 328.47265625 C-128.298479 327.6074939 -128.298479 327.6074939 -127.22412109 326.72485352 C-121.68296565 321.73861687 -121.18511775 314.41979208 -120.07861328 307.44970703 C-119.88853069 306.30166973 -119.6984481 305.15363243 -119.50260544 303.97080612 C-118.87477533 300.16175545 -118.26138074 296.35053485 -117.6484375 292.5390625 C-117.32049334 290.52715091 -116.99106128 288.51548702 -116.66142809 286.50385153 C-115.27035791 278.0136339 -113.90247771 269.51976683 -112.54233742 261.02454567 C-112.20921185 258.94426086 -111.87562295 256.86405085 -111.54191589 254.78385925 C-108.87068218 238.12677678 -106.23958422 221.46360453 -103.64123702 204.7950027 C-103.48769677 203.81003837 -103.48769677 203.81003837 -103.33105469 202.80517578 C-103.22860325 202.14790536 -103.12615181 201.49063494 -103.02059579 200.81344724 C-102.16756302 195.34510472 -101.30629653 189.87807836 -100.44366348 184.41124332 C-99.49087203 178.3701638 -98.54648362 172.32779832 -97.60519791 166.28491592 C-97.21138762 163.76406083 -96.81511052 161.24358969 -96.41619492 158.72353745 C-95.86644007 155.2462973 -95.32633407 151.76768672 -94.78857422 148.28857422 C-94.54564384 146.77271225 -94.54564384 146.77271225 -94.29780579 145.22622681 C-92.28151847 134.289231 -92.28151847 134.289231 -94.890625 123.96875 C-97.20454332 121.90498501 -99.46403056 120.35188318 -102.203125 118.90625 C-101.708125 117.42125 -101.708125 117.42125 -101.203125 115.90625 C-101.11065119 114.42938889 -101.07313429 112.94849499 -101.078125 111.46875 C-101.07554687 110.70691406 -101.07296875 109.94507813 -101.0703125 109.16015625 C-101.13209567 106.88896414 -101.13209567 106.88896414 -101.7734375 104.68359375 C-101.91523437 104.09707031 -102.05703125 103.51054687 -102.203125 102.90625 C-100.15558815 100.85871315 -95.83811792 101.6531417 -93.0625 101.578125 C-89.12079717 100.65193253 -87.76885616 99.01521834 -85.203125 95.90625 C-84.39911902 93.21321492 -83.88182627 90.92243875 -83.5078125 88.17578125 C-83.38882599 87.42648849 -83.26983948 86.67719574 -83.14724731 85.90519714 C-82.77159736 83.51222236 -82.42424212 81.11615567 -82.078125 78.71875 C-81.83914395 77.1592122 -81.59827301 75.59996277 -81.35546875 74.04101562 C-80.87064837 70.91288659 -80.39401001 67.78368211 -79.92382812 64.65332031 C-79.19828786 59.84891288 -78.44474956 55.04965814 -77.6640625 50.25390625 C-77.55093719 49.53838089 -77.43781189 48.82285553 -77.32125854 48.08564758 C-74.4987544 30.9366826 -67.87958204 13.74248776 -53.6015625 2.9375 C-36.20453736 -8.62784629 -18.44306594 -10.62820749 0 0 Z M-49.203125 21.90625 C-60.20882345 36.82009443 -62.2311592 54.56960825 -59.6953125 72.49609375 C-57.0314634 84.39155785 -51.0529405 95.88789288 -40.5390625 102.609375 C-33.11525808 106.41982328 -25.99014875 108.41196464 -17.7109375 106.2578125 C-6.52742757 102.18157991 0.83747318 95.08640029 5.98046875 84.4609375 C13.21673493 67.54980994 12.51416295 49.17845044 5.734375 32.25390625 C0.4894404 21.89151809 -7.23134613 14.56350962 -18.203125 10.90625 C-31.08538022 9.89620171 -40.46115798 12.05815654 -49.203125 21.90625 Z" fill="#f88379" transform="translate(645.203125,165.09375)"/>
<path d="M0 0 C0.22343321 22.49040675 -0.37598969 44.93511166 -1.09156036 67.41200256 C-1.18880355 70.47860807 -1.28426052 73.54526497 -1.3793335 76.61193848 C-2.73422205 120.15769531 -4.48040183 163.68758046 -6.28588867 207.21655273 C-6.87682273 221.47694995 -7.45247664 235.73786638 -8 250 C-8.03703411 250.95842175 -8.07406822 251.91684349 -8.11222458 252.90430832 C-8.90938752 273.70682147 -9.03069622 294.26216391 -7.8125 315.0625 C-7.67359069 317.63711575 -7.53644898 320.21182735 -7.40087891 322.78662109 C-7.18149065 326.94877138 -6.96097266 331.11084133 -6.73394775 335.27258301 C-5.78461067 352.70279508 -4.9647358 370.1392378 -4.13876343 387.57565308 C-3.92359336 392.11263479 -3.70528921 396.6494587 -3.48582458 401.18623447 C-0.79838615 456.76863181 -0.79838615 456.76863181 -0.9375 480.25 C-0.94255296 481.80859222 -0.9471088 483.36718613 -0.95117188 484.92578125 C-0.96181401 488.61722479 -0.97884118 492.30859979 -1 496 C-2.98 496 -4.96 496 -7 496 C-9.55139103 491.46681604 -10.57270227 487.64477621 -11.20805359 482.49559021 C-11.30086046 481.76937867 -11.39366734 481.04316713 -11.48928654 480.29494917 C-11.79307728 477.89888584 -12.08141038 475.50122429 -12.36987305 473.10327148 C-12.5833184 471.39767748 -12.79785361 469.69221956 -13.01341534 467.98689175 C-13.46169535 464.42919781 -13.90415158 460.87085098 -14.34209824 457.31187057 C-14.96110072 452.29339989 -15.60145219 447.27789152 -16.25039673 442.26321411 C-16.45743242 440.66216191 -16.66445761 439.06110835 -16.87147236 437.46005344 C-16.9741856 436.66570082 -17.07689883 435.87134819 -17.1827246 435.05292428 C-19.36189969 418.15846778 -21.49155953 401.25754771 -23.62483692 384.35724735 C-24.84258425 374.71212585 -26.06586716 365.06777009 -27.30249023 355.42504883 C-28.39704447 346.89008387 -29.48134899 338.35388828 -30.55365962 329.81609911 C-31.11647374 325.33751573 -31.68388313 320.85964147 -32.26371193 316.38322639 C-35.49737842 291.37911453 -37.06186003 267.51114644 -34.375 242.36328125 C-34.1936227 240.58072871 -34.01328518 238.79807014 -33.8338623 237.01531982 C-33.34014882 232.1393079 -32.83209377 227.26488799 -32.32125854 222.39064407 C-31.77204487 217.12834417 -31.2353701 211.86476376 -30.69726562 206.60131836 C-29.9767896 199.56438484 -29.25407865 192.52769336 -28.5255127 185.49159241 C-26.5396588 166.31084966 -24.59258489 147.12635341 -22.65665722 127.940512 C-21.48475455 116.32915506 -20.30660052 104.71843167 -19.12770081 93.10778332 C-18.94645374 91.32253794 -18.76521492 89.53729173 -18.58398438 87.75204468 C-18.49442946 86.8698822 -18.40487455 85.98771973 -18.31260586 85.07882506 C-17.67921831 78.83654266 -17.04901216 72.59394358 -16.41992188 66.35122681 C-15.64562485 58.66876678 -14.86590163 50.98687908 -14.07958078 43.3056401 C-13.67262857 39.32884226 -13.26815115 35.35183145 -12.87004089 31.37413788 C-12.50170276 27.69457212 -12.12652925 24.0157693 -11.74595642 20.33744943 C-11.54339639 18.36232875 -11.34811915 16.38646541 -11.15307617 14.41058826 C-11.03017212 13.23583282 -10.90726807 12.06107737 -10.78063965 10.85072327 C-10.67748192 9.83481645 -10.57432419 8.81890963 -10.46804047 7.77221775 C-9.98299816 4.89929759 -9.34162801 2.5883046 -8 0 C-4.71023192 -1.09658936 -3.28696233 -0.79953138 0 0 Z " fill="#f88379" transform="translate(774.6875,171.75)"/>
<path d="M0 0 C2.3125 1.25 2.3125 1.25 3.3125 3.25 C3.53133942 4.7191415 3.70102387 6.19575261 3.84553528 7.67405701 C3.93892591 8.60944211 4.03231653 9.54482721 4.12853718 10.50855732 C4.22767509 11.54270362 4.32681299 12.57684992 4.42895508 13.64233398 C4.5368571 14.73502437 4.64475912 15.82771475 4.7559309 16.95351696 C5.11839674 20.63401668 5.47516388 24.31504729 5.83203125 27.99609375 C6.08916861 30.61765923 6.34666362 33.23918966 6.60449219 35.86068726 C7.30422633 42.98322033 7.99831753 50.1062962 8.69122696 57.229496 C9.1239236 61.67759587 9.55759018 66.12560077 9.99154663 70.57357788 C10.06350233 71.31113396 10.13545802 72.04869005 10.20959419 72.80859631 C10.57664403 76.57064242 10.94376775 80.33268133 11.31089497 84.09471989 C11.38435231 84.84747328 11.45780966 85.60022667 11.53349298 86.37579077 C11.68251698 87.90289093 11.83154947 89.42999026 11.9805904 90.95708877 C12.35774507 94.82189822 12.73462039 98.6867346 13.11097145 102.55162239 C15.10287646 123.00648214 17.12906196 143.457509 19.19742996 163.90477771 C19.69703634 168.84603246 20.19375671 173.7875704 20.68840027 178.72932434 C20.75723291 179.41699688 20.82606556 180.10466941 20.89698404 180.81318051 C21.23944413 184.23575278 21.58150369 187.65836483 21.92327404 191.08100605 C22.58245078 197.67747976 23.24748965 204.27328673 23.92520142 210.8678894 C24.56286109 217.0736974 25.1857461 223.28082713 25.79837036 229.48915482 C26.02210951 231.73059731 26.25093483 233.97154053 26.48590088 236.21183395 C29.43054966 264.35003279 28.64526773 291.5173684 24.9082973 319.49076772 C24.41134687 323.24447679 23.93753834 327.00112295 23.46070862 330.75743103 C22.5532009 337.88004283 21.62612815 344.99995507 20.69140631 352.11904091 C19.65442414 360.02422188 18.63951234 367.93218156 17.62659526 375.84047627 C15.86274205 389.60891282 14.07644457 403.37429472 12.27610469 417.13800359 C11.08046068 426.28404293 9.90474484 435.432245 8.75950909 444.58473682 C8.12777387 449.63215541 7.49005426 454.67881093 6.85222054 459.72546196 C6.56156793 462.0402402 6.27405496 464.35541521 5.98995781 466.67100716 C5.60308449 469.82268775 5.20520239 472.97279998 4.80493164 476.12280273 C4.69729303 477.0257073 4.58965443 477.92861187 4.47875404 478.85887718 C2.65966053 492.90283947 2.65966053 492.90283947 -0.6875 496.25 C-2.68708364 496.29080783 -4.68795254 496.29254356 -6.6875 496.25 C-6.82001238 457.43565175 -5.89781648 418.65101399 -4.25 379.875 C-4.21713646 379.09827942 -4.18427292 378.32155884 -4.15041351 377.52130127 C-3.51236242 362.47370586 -2.87004188 347.4270647 -1.92116642 332.3952837 C-0.81542902 314.76261115 -0.51484135 297.19029389 -0.51953125 279.5234375 C-0.51924549 278.20421484 -0.51895973 276.88499218 -0.51866531 275.52579308 C-0.52505094 246.87326513 -1.35368957 218.25911626 -2.35293788 189.62491763 C-2.61837897 181.99745881 -2.86774299 174.36948275 -3.11621094 166.74145508 C-3.13895521 166.04366279 -3.16169949 165.34587049 -3.18513298 164.62693298 C-3.27672244 161.81627557 -3.36825589 159.00561637 -3.45960808 156.19495124 C-3.59504841 152.02830291 -3.73136249 147.86168443 -3.86841393 143.6950888 C-4.6328011 120.44456204 -5.30847167 97.19278284 -5.87589264 73.93661118 C-5.93603385 71.49697472 -5.99815951 69.05739732 -6.06097412 66.61782837 C-6.61970276 44.8250385 -6.7852426 23.04973233 -6.6875 1.25 C-3.0234375 -0.84375 -3.0234375 -0.84375 0 0 Z " fill="#f88379" transform="translate(774.6875,171.75)"/>
<path d="M0 0 C0 70.62 0 141.24 0 214 C-12.87 214 -25.74 214 -39 214 C-39.3125 204.25 -39.3125 204.25 -39.38793945 201.25878906 C-39.91201466 188.23724151 -44.21780966 177.70073927 -49.97265625 166.17578125 C-56.77492112 152.03374285 -57.48859422 138.74996434 -57.39111328 123.33422852 C-57.37511987 120.33497985 -57.39098885 117.33709696 -57.41015625 114.33789062 C-57.44904406 79.33472388 -48.03403627 44.87234589 -23.15234375 19.2578125 C-20.97535464 17.19525604 -20.97535464 17.19525604 -20 15 C-19.34 15 -18.68 15 -18 15 C-18 14.34 -18 13.68 -18 13 C-16.32464541 11.48015117 -14.58294378 10.03293547 -12.8125 8.625 C-11.84957031 7.85414063 -10.88664062 7.08328125 -9.89453125 6.2890625 C-8.93933594 5.53367188 -7.98414063 4.77828125 -7 4 C-6.09636719 3.24460938 -5.19273437 2.48921875 -4.26171875 1.7109375 C-2 0 -2 0 0 0 Z " fill="#f88379" transform="translate(301,174)"/>
<path d="M0 0 C0.94470657 -0.01283524 1.88941315 -0.02567047 2.86274719 -0.03889465 C3.88668076 -0.04628159 4.91061432 -0.05366852 5.96557617 -0.0612793 C7.01629807 -0.06935104 8.06701996 -0.07742279 9.14958191 -0.08573914 C11.37639716 -0.09958619 13.60323369 -0.11030555 15.83007812 -0.11816406 C19.23437768 -0.13537586 22.63770602 -0.17925718 26.04174805 -0.22338867 C28.20385027 -0.2335155 30.36596076 -0.24203163 32.52807617 -0.2487793 C34.05486748 -0.27504143 34.05486748 -0.27504143 35.61250305 -0.30183411 C40.03571297 -0.28827206 42.69669722 -0.26472559 46.56591797 2.01611328 C49.15939892 4.996882 49.5716056 7.37426669 49.55957031 11.18945312 C49.55949478 11.99005661 49.55941925 12.7906601 49.55934143 13.61552429 C49.55418015 14.47499161 49.54901886 15.33445892 49.54370117 16.2199707 C49.54228622 17.10356766 49.54087128 17.98716461 49.53941345 18.89753723 C49.53381561 21.71989323 49.52126353 24.54216993 49.50854492 27.36450195 C49.50352964 29.27791227 49.49896678 31.19132382 49.49487305 33.10473633 C49.48384689 37.7955221 49.46658375 42.48624858 49.44604492 47.17700195 C48.23956299 47.20205811 47.03308105 47.22711426 45.79003906 47.25292969 C41.33028831 47.34682718 36.87069979 47.44709029 32.41113281 47.54931641 C30.47790308 47.59273237 28.54463333 47.63440238 26.61132812 47.67431641 C23.8386629 47.73185827 21.06620035 47.79559815 18.29370117 47.8605957 C17.42391129 47.8773082 16.5541214 47.89402069 15.65797424 47.91123962 C11.73488527 47.62726409 11.73488527 47.62726409 8.44604492 49.17700195 C8.27937826 51.67700195 8.27937826 51.67700195 8.44604492 54.17700195 C10.57690934 56.30786637 15.33771428 55.43661068 18.29370117 55.4934082 C19.18012802 55.5141893 20.06655487 55.5349704 20.97984314 55.55638123 C23.82266193 55.62197595 26.66557609 55.68080748 29.50854492 55.73950195 C31.43108099 55.78267776 33.35360726 55.82629173 35.27612305 55.87036133 C39.9993316 55.97766738 44.72263646 56.07890646 49.44604492 56.17700195 C49.44604492 61.45700195 49.44604492 66.73700195 49.44604492 72.17700195 C48.23956299 72.20205811 47.03308105 72.22711426 45.79003906 72.25292969 C41.33028831 72.34682718 36.87069979 72.44709029 32.41113281 72.54931641 C30.47790308 72.59273237 28.54463333 72.63440238 26.61132812 72.67431641 C23.8386629 72.73185827 21.06620035 72.79559815 18.29370117 72.8605957 C17.42391129 72.8773082 16.5541214 72.89402069 15.65797424 72.91123962 C11.73488527 72.62726409 11.73488527 72.62726409 8.44604492 74.17700195 C8.27937826 76.67700195 8.27937826 76.67700195 8.44604492 79.17700195 C10.57690934 81.30786637 15.33771428 80.43661068 18.29370117 80.4934082 C19.62334145 80.52457985 19.62334145 80.52457985 20.97984314 80.55638123 C23.82266193 80.62197595 26.66557609 80.68080748 29.50854492 80.73950195 C31.43108099 80.78267776 33.35360726 80.82629173 35.27612305 80.87036133 C39.9993316 80.97766738 44.72263646 81.07890646 49.44604492 81.17700195 C49.44604492 86.45700195 49.44604492 91.73700195 49.44604492 97.17700195 C48.23956299 97.20205811 47.03308105 97.22711426 45.79003906 97.25292969 C41.33028831 97.34682718 36.87069979 97.44709029 32.41113281 97.54931641 C30.47790308 97.59273237 28.54463333 97.63440238 26.61132812 97.67431641 C23.8386629 97.73185827 21.06620035 97.79559815 18.29370117 97.8605957 C17.42391129 97.8773082 16.5541214 97.89402069 15.65797424 97.91123962 C11.73488527 97.62726409 11.73488527 97.62726409 8.44604492 99.17700195 C8.27937826 102.17700195 8.27937826 102.17700195 8.44604492 105.17700195 C10.57690934 107.30786637 15.33771428 106.43661068 18.29370117 106.4934082 C19.62334145 106.52457985 19.62334145 106.52457985 20.97984314 106.55638123 C23.82266193 106.62197595 26.66557609 106.68080748 29.50854492 106.73950195 C31.43108099 106.78267776 33.35360726 106.82629173 35.27612305 106.87036133 C39.9993316 106.97766738 44.72263646 107.07890646 49.44604492 107.17700195 C49.53968136 124.71918387 49.61011838 142.26128727 49.65329361 159.8036623 C49.67387767 167.94975983 49.70191823 176.09570166 49.74780273 184.24169922 C49.78779839 191.34564947 49.81350792 198.44948689 49.8223989 205.55354661 C49.82759225 209.31161519 49.83971043 213.06936113 49.86896515 216.82732582 C49.89633621 220.37240978 49.90444681 223.91704155 49.89847565 227.46222115 C49.90008204 229.36742073 49.9214905 231.27257231 49.94372559 233.17764282 C49.89139033 244.21304889 47.45859556 253.15002587 39.73901367 261.23168945 C32.65639453 267.24045322 24.79606826 269.60210808 15.65698242 269.5246582 C8.31110624 268.72930178 2.07699408 264.86645378 -2.55395508 259.17700195 C-8.06913918 251.40414015 -9.8540138 244.88365938 -9.81465149 235.41575623 C-9.81847704 234.43818849 -9.82230258 233.46062076 -9.82624406 232.45342976 C-9.83655528 229.18081239 -9.83258546 225.90837108 -9.82861328 222.63574219 C-9.83296071 220.28831825 -9.83814396 217.94089574 -9.84410095 215.59347534 C-9.85749684 209.21971527 -9.8580691 202.84601448 -9.85553765 196.47224307 C-9.85433342 190.48110475 -9.86054423 184.48997476 -9.86597111 178.49883974 C-9.87684201 165.91106246 -9.87468595 153.32331198 -9.86858626 140.73553319 C-9.86341428 129.21914184 -9.87468074 117.702835 -9.89368448 106.18646037 C-9.91305288 94.35839847 -9.92132085 82.53037657 -9.91756123 70.7022987 C-9.91564808 64.06286983 -9.91841221 57.42350394 -9.93227577 50.78408623 C-9.94481895 44.54357503 -9.94294326 38.30323355 -9.92986488 32.06272507 C-9.92749213 29.77015056 -9.93025865 27.47756424 -9.93848801 25.18500328 C-9.94889763 22.06022461 -9.94090122 18.9360216 -9.92817688 15.81126404 C-9.93555116 14.89998432 -9.94292545 13.9887046 -9.9505232 13.04981035 C-9.90958334 8.28472303 -9.69779646 5.02503748 -6.55395508 1.17700195 C-4.16991966 -0.01501576 -2.66144391 0.03144508 0 0 Z " fill="#f88379" transform="translate(259.553955078125,398.822998046875)"/>
<path d="M0 0 C0.34630574 16.92408962 -0.66689813 33.74774508 -1.7376709 50.62774658 C-1.9200655 53.52944198 -2.09572969 56.43152811 -2.27136612 59.33363914 C-3.07590641 72.60468765 -3.92286172 85.87197859 -5.0390625 99.12109375 C-5.11365692 100.02978714 -5.18825134 100.93848053 -5.2651062 101.87471008 C-5.94028158 109.51410994 -6.66537275 117.49805912 -11 124 C-11.66 124 -12.32 124 -13 124 C-13.19613016 57.31663428 -13.19613016 57.31663428 -12.5625 34.75 C-12.54285187 34.02391541 -12.52320374 33.29783081 -12.50296021 32.54974365 C-12.37624176 28.03100935 -12.19631066 23.5163349 -12 19 C-11.95924988 17.60807467 -11.91856114 16.21614755 -11.87792969 14.82421875 C-11.82214762 13.46088854 -11.76521889 12.09760466 -11.70703125 10.734375 C-11.66425049 9.52491211 -11.62146973 8.31544922 -11.57739258 7.06933594 C-10.90560465 3.49820787 -10.07120886 2.52687238 -7.125 0.5 C-4.00964285 -1.01744333 -3.40789422 -1.13596474 0 0 Z " fill="#f88379" transform="translate(542,544)"/>
<path d="M0 0 C0 48.18 0 96.36 0 146 C-6.93 146 -13.86 146 -21 146 C-21 98.15 -21 50.3 -21 1 C-1 0 -1 0 0 0 Z " fill="#f88379" transform="translate(271,703)"/>
<path d="M0 0 C2.64 0 5.28 0 8 0 C8 47.85 8 95.7 8 145 C5.69 145 3.38 145 1 145 C-0.37347189 130.77520737 -0.13072415 116.50251838 -0.10139394 102.22830892 C-0.09507267 98.62489974 -0.09454975 95.02148942 -0.09336853 91.41807556 C-0.09028076 84.61870153 -0.08210239 77.8193439 -0.07201904 71.01997703 C-0.06077783 63.26887205 -0.05532742 55.51776621 -0.05032361 47.76665509 C-0.03991717 31.84442728 -0.02236806 15.92221577 0 0 Z " fill="#f88379" transform="translate(279,704)"/>
<path d="M0 0 C6.6 0 13.2 0 20 0 C20 47.85 20 95.7 20 145 C13.4 145 6.8 145 0 145 C0 97.15 0 49.3 0 0 Z " fill="#f88379" transform="translate(296,704)"/>
<path d="M0 0 C6.6 0 13.2 0 20 0 C20 47.85 20 95.7 20 145 C13.4 145 6.8 145 0 145 C0 97.15 0 49.3 0 0 Z " fill="#f88379" transform="translate(329,704)"/>
<path d="M0 0 C7.26 0 14.52 0 22 0 C22 47.85 22 95.7 22 145 C14.74 145 7.48 145 0 145 C0 97.15 0 49.3 0 0 Z " fill="#f88379" transform="translate(359,704)"/>
<path d="M0 0 C4.62 0 9.24 0 14 0 C14 47.85 14 95.7 14 145 C9.38 145 4.76 145 0 145 C0 97.15 0 49.3 0 0 Z " fill="#f88379" transform="translate(399,704)"/>
<path d="M0 0 C5.28 0 10.56 0 16 0 C16 47.85 16 95.7 16 145 C10.72 145 5.44 145 0 145 C0 97.15 0 49.3 0 0 Z " fill="#f88379" transform="translate(424,704)"/>
<path d="M0 0 C4.62 0 9.24 0 14 0 C14 47.85 14 95.7 14 145 C9.38 145 4.76 145 0 145 C0 97.15 0 49.3 0 0 Z " fill="#f88379" transform="translate(452,704)"/>
<path d="M0 0 C4.62 0 9.24 0 14 0 C14 47.85 14 95.7 14 145 C9.38 145 4.76 145 0 145 C0 97.15 0 49.3 0 0 Z " fill="#f88379" transform="translate(485,704)"/>
<path d="M0 0 C5.94 0 11.88 0 18 0 C18 47.85 18 95.7 18 145 C12.06 145 6.12 145 0 145 C0 97.15 0 49.3 0 0 Z " fill="#f88379" transform="translate(511,704)"/>
<path d="M0 0 C2.64 0 5.28 0 8 0 C8 47.85 8 95.7 8 145 C5.36 145 2.72 145 0 145 C0 97.15 0 49.3 0 0 Z " fill="#f88379" transform="translate(541,704)"/>
<path d="M0 0 C7.92 0 15.84 0 24 0 C24 47.85 24 95.7 24 145 C16.08 145 8.16 145 0 145 C0 97.15 0 49.3 0 0 Z " fill="#f88379" transform="translate(558,704)"/>
<path d="M0 0 C7.26 0 14.52 0 22 0 C21.67 47.85 21.34 95.7 21 145 C14.07 145 7.14 145 0 145 C0 97.15 0 49.3 0 0 Z " fill="#f88379" transform="translate(594,704)"/>
<path d="M0 0 C4.62 0 9.24 0 14 0 C14 47.85 14 95.7 14 145 C9.38 145 4.76 145 0 145 C0 97.15 0 49.3 0 0 Z " fill="#f88379" transform="translate(628,704)"/>
<path d="M0 0 C4.95 0 9.9 0 15 0 C15 47.85 15 95.7 15 145 C10.05 145 5.1 145 0 145 C0 97.15 0 49.3 0 0 Z " fill="#f88379" transform="translate(654,704)"/>
<path d="M0 0 C4.62 0 9.24 0 14 0 C14 47.85 14 95.7 14 145 C9.38 145 4.76 145 0 145 C0 97.15 0 49.3 0 0 Z " fill="#f88379" transform="translate(677,704)"/>
<path d="M0 0 C7.59 0 15.18 0 23 0 C23 47.85 23 95.7 23 145 C15.41 145 7.82 145 0 145 C0 97.15 0 49.3 0 0 Z " fill="#f88379" transform="translate(703,704)"/>
<path d="M0 0 C4.29 0 8.58 0 13 0 C13 47.85 13 95.7 13 145 C8.71 145 4.42 145 0 145 C0 97.15 0 49.3 0 0 Z " fill="#f88379" transform="translate(739,704)"/>
<path d="M0 0 C3.96 0 7.92 0 12 0 C12 47.85 12 95.7 12 145 C8.04 145 4.08 145 0 145 C0 97.15 0 49.3 0 0 Z " fill="#f88379" transform="translate(763,704)"/>
<path d="M0 0 C12.21 0 24.42 0 37 0 C37.13147657 7.99189719 37.26260493 15.98378959 37.39079285 23.97573853 C37.45061056 27.69966028 37.510966 31.42357131 37.57275391 35.14746094 C37.64400516 39.44723837 37.71342784 43.74704212 37.78125 48.046875 C37.79234362 48.74649227 37.80343723 49.44610954 37.81486702 50.16692734 C37.95978603 59.45214142 38.05546358 68.73504636 37.97607422 78.02142334 C37.88948306 91.88584855 41.5994793 104.46002224 51 115 C61.66572096 124.00037154 72.45905531 127.12298242 86.11450195 127.20532227 C87.12960342 127.21522186 88.1447049 127.22512146 89.19056702 127.23532104 C92.53978151 127.26686282 95.88901019 127.29166458 99.23828125 127.31640625 C101.56284449 127.33698209 103.88740404 127.35797873 106.21195984 127.37937927 C112.3258668 127.43453479 118.43980716 127.48397285 124.55377197 127.53222656 C130.79434171 127.58248918 137.03486303 127.6381504 143.27539062 127.69335938 C155.51688723 127.80086123 167.75842504 127.90182496 180 128 C180 140.21 180 152.42 180 165 C166.49019955 165.09079636 152.98060569 165.16400025 139.4705677 165.20724869 C133.19559408 165.22801812 126.92084217 165.25613901 120.64599609 165.30175781 C114.5770033 165.34559796 108.50822217 165.36921688 102.4390831 165.37950897 C100.13732451 165.38683241 97.83557594 165.4011307 95.53390884 165.42292023 C68.08469539 165.67216238 44.09345664 160.75797867 23.625 141.0625 C3.24962734 119.66506172 -0.36023263 93.95771949 -0.1953125 65.72265625 C-0.19157239 63.8159551 -0.18873015 61.909252 -0.18673706 60.00254822 C-0.17917904 55.03620902 -0.15959992 50.06999082 -0.1373291 45.10369873 C-0.11305912 39.11706288 -0.10405232 33.13038609 -0.09242249 27.1437149 C-0.07316933 18.09572634 -0.03479257 9.04800213 0 0 Z " fill="#f88379" transform="translate(103,754)"/>
<path d="M0 0 C1.56047445 0.00015913 3.12095416 0.00585397 4.68139648 0.01586914 C5.5012352 0.01728409 6.32107391 0.01869904 7.16575623 0.02015686 C9.79470406 0.0257725 12.42356797 0.0383276 15.05249023 0.05102539 C16.8304838 0.05603838 18.60847869 0.06060163 20.38647461 0.06469727 C24.75434569 0.07574701 29.12215371 0.09302208 33.48999023 0.11352539 C33.53655435 11.2151085 33.57198087 22.31666796 33.59361458 33.41832924 C33.60400335 38.57457582 33.61807178 43.73075505 33.64086914 48.88696289 C33.66277394 53.87311836 33.67459564 58.85920948 33.67974472 63.84540939 C33.68340908 65.73736965 33.69056356 67.62932682 33.70145035 69.52125931 C33.84859162 96.17845754 29.43460908 119.86301348 10.20092773 139.43383789 C9.30631836 140.31813477 8.41170898 141.20243164 7.48999023 142.11352539 C6.39557617 143.2234082 6.39557617 143.2234082 5.27905273 144.35571289 C-14.55262169 163.30270296 -39.44261766 165.43253285 -65.43188477 165.30883789 C-67.74643837 165.30510215 -70.06099356 165.30225783 -72.37554932 165.30026245 C-78.43188943 165.29267017 -84.48813178 165.27306 -90.54443359 165.25085449 C-96.7386747 165.23030063 -102.93293179 165.22124043 -109.12719727 165.21118164 C-121.2548441 165.18980956 -133.38241876 165.15572746 -145.51000977 165.11352539 C-145.6772453 160.00506745 -145.83784263 154.89646135 -145.9921875 149.78759766 C-146.04568239 148.04828216 -146.10101732 146.30902227 -146.15820312 144.56982422 C-146.23990604 142.07539873 -146.31507141 139.58085056 -146.38891602 137.08618164 C-146.42946861 135.91273949 -146.42946861 135.91273949 -146.47084045 134.71559143 C-146.52289362 132.84891606 -146.52188001 130.98088865 -146.51000977 129.11352539 C-144.55999371 127.16350933 -141.58993193 127.98233195 -138.9934845 127.97007751 C-138.05437729 127.97060623 -137.11527008 127.97113495 -136.14770508 127.97167969 C-134.6718821 127.96646805 -134.6718821 127.96646805 -133.16624451 127.96115112 C-131.01965149 127.95377631 -128.87305076 127.94844017 -126.72644806 127.94486046 C-123.32023425 127.93770655 -119.91416549 127.9220439 -116.50799561 127.90351868 C-106.81939802 127.85102789 -97.13087509 127.80315486 -87.44213867 127.78759766 C-81.52099992 127.77746564 -75.60021896 127.74799831 -69.67922211 127.70627785 C-67.42921416 127.69402578 -65.17915549 127.68883591 -62.9291153 127.69107628 C-46.124295 127.7036799 -31.24129474 127.26052988 -18.35766602 115.07836914 C-10.30616586 106.57706451 -5.31283222 96.48826077 -5.19116211 84.69384766 C-5.18111649 83.97579453 -5.17107086 83.25774139 -5.16072083 82.51792908 C-5.12996386 80.15527064 -5.11285283 77.79272642 -5.09594727 75.42993164 C-5.07720093 73.77049331 -5.05762504 72.11106417 -5.03726196 70.4516449 C-4.9859821 66.08287145 -4.94638464 61.71406619 -4.90911865 57.34515381 C-4.86940319 52.94820021 -4.81792615 48.55138616 -4.76782227 44.15454102 C-4.6961363 37.66899795 -4.62783129 31.1834371 -4.57006836 24.69775391 C-4.56324224 23.97568032 -4.55641613 23.25360674 -4.54938316 22.50965214 C-4.51889708 18.90671246 -4.50980759 15.30536182 -4.53619385 11.70236206 C-4.54038645 11.00386359 -4.54457905 10.30536512 -4.5488987 9.58570004 C-4.56238534 7.67838963 -4.58220428 5.771127 -4.60244751 3.86387634 C-4.46421007 -0.24917812 -4.23598976 0.137006 0 0 Z " fill="#f88379" transform="translate(887.510009765625,753.886474609375)"/>
</svg>
