<svg xmlns="http://www.w3.org/2000/svg" xmlns:xlink="http://www.w3.org/1999/xlink" width="500" zoomAndPan="magnify" viewBox="0 0 375 374.999991" height="500" preserveAspectRatio="xMidYMid meet" version="1.2"><defs><clipPath id="e3b4a7930a"><path d="M 65.089844 191 L 88 191 L 88 198 L 65.089844 198 Z M 65.089844 191 "/></clipPath><clipPath id="fb17867f33"><path d="M 65.089844 191 L 73 191 L 73 213 L 65.089844 213 Z M 65.089844 191 "/></clipPath><clipPath id="b6ce34e0c3"><path d="M 236.289062 340.71875 L 258.132812 340.71875 L 258.132812 347.480469 L 236.289062 347.480469 Z M 236.289062 340.71875 "/></clipPath><clipPath id="0b5c880989"><path d="M 251.273438 325.730469 L 258.132812 325.730469 L 258.132812 347.480469 L 251.273438 347.480469 Z M 251.273438 325.730469 "/></clipPath><clipPath id="e4a31cec29"><path d="M 65.363281 325.730469 L 72.0625 325.730469 L 72.0625 347.480469 L 65.363281 347.480469 Z M 65.363281 325.730469 "/></clipPath><clipPath id="612a385fbc"><path d="M 65.363281 340.71875 L 87.207031 340.71875 L 87.207031 347.480469 L 65.363281 347.480469 Z M 65.363281 340.71875 "/></clipPath><clipPath id="6fd848d82c"><path d="M 259.246094 290.332031 L 309.308594 290.332031 L 309.308594 340.558594 L 259.246094 340.558594 Z M 259.246094 290.332031 "/></clipPath><clipPath id="75028e981b"><path d="M 119.691406 27.3125 L 204.441406 27.3125 L 204.441406 208 L 119.691406 208 Z M 119.691406 27.3125 "/></clipPath><clipPath id="5d2ce3ff19"><path d="M 120 31 L 203 31 L 203 207 L 120 207 Z M 120 31 "/></clipPath><clipPath id="fd1cd964be"><path d="M 155.675781 38.714844 C 155.121094 37.984375 154.277344 36.800781 153.625 35.515625 C 154.074219 36.050781 154.476562 36.398438 154.578125 36.476562 C 154.765625 36.628906 154.988281 36.707031 155.214844 36.707031 C 155.453125 36.707031 155.695312 36.621094 155.886719 36.449219 C 156.253906 36.117188 156.324219 35.558594 156.050781 35.148438 C 155.070312 33.664062 155.082031 32.371094 155.359375 31.433594 C 155.226562 32.039062 155.222656 32.628906 155.371094 33.1875 C 155.566406 33.914062 155.871094 34.570312 156.179688 35.273438 C 156.6875 36.398438 157.210938 37.550781 157.304688 39.054688 C 157.464844 41.644531 160.070312 81.765625 160.09375 82.171875 C 160.113281 82.46875 160.257812 82.742188 160.496094 82.914062 L 160.804688 83.144531 L 159.152344 84.371094 C 158.699219 84.703125 158.417969 85.210938 158.367188 85.773438 C 158.339844 86.082031 158.300781 86.488281 158.265625 86.964844 C 157.847656 72.0625 157.226562 50.542969 157.011719 47.445312 C 156.679688 42.660156 155.871094 39.226562 155.839844 39.082031 C 155.820312 38.953125 155.761719 38.820312 155.675781 38.714844 Z M 202.589844 191.140625 C 202.589844 199.734375 197.105469 206.71875 190.363281 206.71875 C 183.863281 206.71875 178.5 200.238281 178.160156 191.960938 C 178.15625 191.839844 178.125 191.714844 178.082031 191.609375 C 177.230469 183.445312 175.269531 179.136719 172.382812 179.136719 C 172.308594 179.136719 172.238281 179.136719 172.164062 179.144531 C 171.609375 179.1875 170.828125 179.21875 169.839844 179.21875 C 169.082031 179.21875 168.320312 179.203125 167.710938 179.1875 C 167.308594 179.179688 166.953125 178.929688 166.804688 178.546875 C 166.617188 178.0625 166.816406 177.523438 167.273438 177.289062 C 168.226562 176.800781 169.601562 176.070312 170.773438 175.429688 C 173.378906 173.992188 172.988281 171.792969 172.394531 168.464844 L 172.257812 167.6875 C 171.617188 163.976562 163.492188 104.222656 163.410156 103.617188 C 163.367188 103.300781 163.179688 103.027344 162.898438 102.875 L 162.703125 102.765625 L 164.6875 101.671875 C 164.914062 101.546875 165.09375 101.375 165.25 101.179688 C 165.519531 104.363281 165.828125 107.976562 166.167969 112.03125 C 167.65625 129.71875 174.0625 169.394531 175.203125 174.757812 C 176.078125 178.855469 178.457031 179.46875 179.792969 179.46875 C 180.859375 179.46875 182.050781 179.109375 183.328125 178.386719 C 183.386719 178.351562 183.445312 178.316406 183.496094 178.273438 C 184.144531 177.710938 184.835938 177.21875 185.550781 176.820312 C 187.082031 175.976562 188.699219 175.550781 190.363281 175.550781 C 197.113281 175.550781 202.589844 182.542969 202.589844 191.140625 Z M 201.925781 191.140625 C 201.925781 182.917969 196.742188 176.230469 190.371094 176.230469 C 184 176.230469 178.820312 182.917969 178.820312 191.140625 C 178.820312 199.359375 184 206.046875 190.371094 206.046875 C 196.738281 206.046875 201.925781 199.359375 201.925781 191.140625 Z M 152.730469 179.21875 L 153.34375 176.09375 C 153.09375 175.957031 152.839844 175.820312 152.585938 175.679688 L 151.902344 179.203125 C 152.152344 179.210938 152.429688 179.21875 152.730469 179.21875 Z M 153.503906 179.21875 L 154.039062 176.46875 C 154.296875 176.605469 154.550781 176.742188 154.796875 176.863281 L 154.339844 179.203125 C 154.074219 179.210938 153.792969 179.21875 153.503906 179.21875 Z M 168.304688 36.476562 C 168.117188 36.628906 167.894531 36.707031 167.667969 36.707031 C 167.429688 36.707031 167.1875 36.621094 167 36.449219 C 166.628906 36.117188 166.558594 35.558594 166.832031 35.148438 C 167.8125 33.664062 167.800781 32.371094 167.523438 31.433594 C 167.65625 32.039062 167.660156 32.628906 167.511719 33.1875 C 167.316406 33.914062 167.011719 34.570312 166.703125 35.273438 C 166.195312 36.398438 165.671875 37.550781 165.578125 39.054688 C 165.417969 41.644531 162.8125 81.765625 162.789062 82.171875 C 162.769531 82.46875 162.625 82.742188 162.386719 82.914062 L 159.328125 85.179688 C 159.109375 85.339844 158.964844 85.589844 158.945312 85.859375 C 158.714844 88.578125 157.941406 97.578125 156.722656 112.03125 C 155.234375 129.71875 148.828125 169.394531 147.6875 174.757812 C 146.8125 178.855469 144.433594 179.46875 143.097656 179.46875 C 142.03125 179.46875 140.839844 179.109375 139.5625 178.386719 C 139.503906 178.351562 139.445312 178.316406 139.394531 178.273438 C 138.746094 177.710938 138.054688 177.21875 137.339844 176.820312 C 135.808594 175.976562 134.191406 175.550781 132.523438 175.550781 C 125.785156 175.550781 120.300781 182.542969 120.300781 191.132812 C 120.300781 199.726562 125.785156 206.710938 132.523438 206.710938 C 139.027344 206.710938 144.390625 200.230469 144.726562 191.953125 C 144.734375 191.832031 144.765625 191.710938 144.808594 191.601562 C 145.660156 183.4375 147.621094 179.128906 150.507812 179.128906 C 150.582031 179.128906 150.652344 179.128906 150.726562 179.136719 C 150.847656 179.144531 150.984375 179.160156 151.136719 179.167969 L 151.894531 175.277344 C 149.550781 173.835938 149.925781 171.675781 150.496094 168.449219 L 150.632812 167.671875 C 151.273438 163.960938 159.398438 104.210938 159.480469 103.605469 C 159.523438 103.285156 159.710938 103.011719 159.992188 102.859375 L 163.765625 100.773438 C 164.0625 100.617188 164.25 100.304688 164.257812 99.972656 C 164.472656 91.957031 165.570312 51.761719 165.863281 47.4375 C 166.195312 42.652344 167.003906 39.21875 167.035156 39.074219 C 167.070312 38.9375 167.128906 38.808594 167.214844 38.699219 C 167.769531 37.972656 168.613281 36.789062 169.265625 35.503906 C 168.816406 36.050781 168.40625 36.398438 168.304688 36.476562 Z M 132.519531 206.046875 C 126.144531 206.046875 120.964844 199.359375 120.964844 191.140625 C 120.964844 182.917969 126.144531 176.230469 132.519531 176.230469 C 138.890625 176.230469 144.070312 182.917969 144.070312 191.140625 C 144.070312 199.359375 138.882812 206.046875 132.519531 206.046875 Z M 156.078125 178.554688 C 155.929688 178.929688 155.574219 179.179688 155.171875 179.195312 C 155.15625 179.195312 155.132812 179.195312 155.121094 179.195312 L 155.503906 177.238281 C 155.539062 177.253906 155.574219 177.277344 155.609375 177.296875 C 156.074219 177.527344 156.273438 178.070312 156.078125 178.554688 Z M 156.078125 178.554688 "/></clipPath><linearGradient x1="57.792999" gradientTransform="matrix(0.721641,0,0,0.721641,119.737871,27.312109)" y1="5.709984" x2="57.792999" gradientUnits="userSpaceOnUse" y2="248.609983" id="8576b7965b"><stop style="stop-color:#fefefe;stop-opacity:1;" offset="0"/><stop style="stop-color:#fefefe;stop-opacity:1;" offset="0.0078125"/><stop style="stop-color:#fdfdfe;stop-opacity:1;" offset="0.015625"/><stop style="stop-color:#fdfdfd;stop-opacity:1;" offset="0.0234375"/><stop style="stop-color:#fcfcfd;stop-opacity:1;" offset="0.03125"/><stop style="stop-color:#fcfcfc;stop-opacity:1;" offset="0.0390625"/><stop style="stop-color:#fbfbfc;stop-opacity:1;" offset="0.046875"/><stop style="stop-color:#fbfbfb;stop-opacity:1;" offset="0.0546875"/><stop style="stop-color:#fafafb;stop-opacity:1;" offset="0.0625"/><stop style="stop-color:#fafafa;stop-opacity:1;" offset="0.0703125"/><stop style="stop-color:#f9f9fa;stop-opacity:1;" offset="0.078125"/><stop style="stop-color:#f9f9f9;stop-opacity:1;" offset="0.0859375"/><stop style="stop-color:#f8f8f9;stop-opacity:1;" offset="0.09375"/><stop style="stop-color:#f8f8f8;stop-opacity:1;" offset="0.101562"/><stop style="stop-color:#f7f7f8;stop-opacity:1;" offset="0.109375"/><stop style="stop-color:#f7f7f7;stop-opacity:1;" offset="0.117188"/><stop style="stop-color:#f6f6f7;stop-opacity:1;" offset="0.125"/><stop style="stop-color:#f6f6f6;stop-opacity:1;" offset="0.132813"/><stop style="stop-color:#f5f5f6;stop-opacity:1;" offset="0.140625"/><stop style="stop-color:#f4f5f5;stop-opacity:1;" offset="0.148438"/><stop style="stop-color:#f4f4f5;stop-opacity:1;" offset="0.15625"/><stop style="stop-color:#f3f4f4;stop-opacity:1;" offset="0.164063"/><stop style="stop-color:#f3f3f4;stop-opacity:1;" offset="0.171875"/><stop style="stop-color:#f2f3f3;stop-opacity:1;" offset="0.179688"/><stop style="stop-color:#f2f2f3;stop-opacity:1;" offset="0.1875"/><stop style="stop-color:#f1f2f2;stop-opacity:1;" offset="0.195313"/><stop style="stop-color:#f1f1f2;stop-opacity:1;" offset="0.203125"/><stop style="stop-color:#f0f1f1;stop-opacity:1;" offset="0.210938"/><stop style="stop-color:#f0f0f1;stop-opacity:1;" offset="0.21875"/><stop style="stop-color:#eff0f0;stop-opacity:1;" offset="0.226563"/><stop style="stop-color:#efeff0;stop-opacity:1;" offset="0.234375"/><stop style="stop-color:#eeefef;stop-opacity:1;" offset="0.242188"/><stop style="stop-color:#eeeeef;stop-opacity:1;" offset="0.25"/><stop style="stop-color:#edeeee;stop-opacity:1;" offset="0.257812"/><stop style="stop-color:#ededee;stop-opacity:1;" offset="0.265625"/><stop style="stop-color:#eceded;stop-opacity:1;" offset="0.273438"/><stop style="stop-color:#ececed;stop-opacity:1;" offset="0.28125"/><stop style="stop-color:#ebecec;stop-opacity:1;" offset="0.289063"/><stop style="stop-color:#eaebec;stop-opacity:1;" offset="0.296875"/><stop style="stop-color:#eaebeb;stop-opacity:1;" offset="0.304688"/><stop style="stop-color:#e9eaeb;stop-opacity:1;" offset="0.3125"/><stop style="stop-color:#e9eaea;stop-opacity:1;" offset="0.320313"/><stop style="stop-color:#e8e9ea;stop-opacity:1;" offset="0.328125"/><stop style="stop-color:#e8e9e9;stop-opacity:1;" offset="0.335938"/><stop style="stop-color:#e7e8e9;stop-opacity:1;" offset="0.34375"/><stop style="stop-color:#e7e8e8;stop-opacity:1;" offset="0.351563"/><stop style="stop-color:#e6e7e8;stop-opacity:1;" offset="0.359375"/><stop style="stop-color:#e6e7e7;stop-opacity:1;" offset="0.367188"/><stop style="stop-color:#e5e6e7;stop-opacity:1;" offset="0.375"/><stop style="stop-color:#e5e6e6;stop-opacity:1;" offset="0.382812"/><stop style="stop-color:#e4e5e6;stop-opacity:1;" offset="0.390625"/><stop style="stop-color:#e4e4e5;stop-opacity:1;" offset="0.398438"/><stop style="stop-color:#e3e4e5;stop-opacity:1;" offset="0.40625"/><stop style="stop-color:#e3e3e4;stop-opacity:1;" offset="0.414063"/><stop style="stop-color:#e2e3e4;stop-opacity:1;" offset="0.421875"/><stop style="stop-color:#e2e2e3;stop-opacity:1;" offset="0.429688"/><stop style="stop-color:#e1e2e3;stop-opacity:1;" offset="0.4375"/><stop style="stop-color:#e1e1e2;stop-opacity:1;" offset="0.445313"/><stop style="stop-color:#e0e1e2;stop-opacity:1;" offset="0.453125"/><stop style="stop-color:#dfe0e1;stop-opacity:1;" offset="0.460938"/><stop style="stop-color:#dfe0e1;stop-opacity:1;" offset="0.46875"/><stop style="stop-color:#dedfe0;stop-opacity:1;" offset="0.476563"/><stop style="stop-color:#dedfe0;stop-opacity:1;" offset="0.484375"/><stop style="stop-color:#dddedf;stop-opacity:1;" offset="0.492188"/><stop style="stop-color:#dddedf;stop-opacity:1;" offset="0.5"/><stop style="stop-color:#dcddde;stop-opacity:1;" offset="0.507812"/><stop style="stop-color:#dcddde;stop-opacity:1;" offset="0.515625"/><stop style="stop-color:#dbdcdd;stop-opacity:1;" offset="0.523438"/><stop style="stop-color:#dbdcdd;stop-opacity:1;" offset="0.53125"/><stop style="stop-color:#dadbdc;stop-opacity:1;" offset="0.539062"/><stop style="stop-color:#dadbdc;stop-opacity:1;" offset="0.546875"/><stop style="stop-color:#d9dadb;stop-opacity:1;" offset="0.554688"/><stop style="stop-color:#d9dadb;stop-opacity:1;" offset="0.5625"/><stop style="stop-color:#d8d9da;stop-opacity:1;" offset="0.570312"/><stop style="stop-color:#d8d9da;stop-opacity:1;" offset="0.578125"/><stop style="stop-color:#d7d8d9;stop-opacity:1;" offset="0.585938"/><stop style="stop-color:#d7d8d9;stop-opacity:1;" offset="0.59375"/><stop style="stop-color:#d6d7d8;stop-opacity:1;" offset="0.601562"/><stop style="stop-color:#d5d7d8;stop-opacity:1;" offset="0.609375"/><stop style="stop-color:#d5d6d7;stop-opacity:1;" offset="0.617188"/><stop style="stop-color:#d4d6d7;stop-opacity:1;" offset="0.625"/><stop style="stop-color:#d4d5d7;stop-opacity:1;" offset="0.632812"/><stop style="stop-color:#d3d5d6;stop-opacity:1;" offset="0.640625"/><stop style="stop-color:#d3d4d6;stop-opacity:1;" offset="0.648438"/><stop style="stop-color:#d2d4d5;stop-opacity:1;" offset="0.65625"/><stop style="stop-color:#d2d3d5;stop-opacity:1;" offset="0.664062"/><stop style="stop-color:#d1d3d4;stop-opacity:1;" offset="0.671875"/><stop style="stop-color:#d1d2d4;stop-opacity:1;" offset="0.679688"/><stop style="stop-color:#d0d2d3;stop-opacity:1;" offset="0.6875"/><stop style="stop-color:#d0d1d3;stop-opacity:1;" offset="0.695312"/><stop style="stop-color:#cfd1d2;stop-opacity:1;" offset="0.703125"/><stop style="stop-color:#cfd0d2;stop-opacity:1;" offset="0.710938"/><stop style="stop-color:#ced0d1;stop-opacity:1;" offset="0.71875"/><stop style="stop-color:#cecfd1;stop-opacity:1;" offset="0.726562"/><stop style="stop-color:#cdcfd0;stop-opacity:1;" offset="0.734375"/><stop style="stop-color:#cdced0;stop-opacity:1;" offset="0.742188"/><stop style="stop-color:#cccecf;stop-opacity:1;" offset="0.75"/><stop style="stop-color:#cbcdcf;stop-opacity:1;" offset="0.757812"/><stop style="stop-color:#cbcdce;stop-opacity:1;" offset="0.765625"/><stop style="stop-color:#caccce;stop-opacity:1;" offset="0.773438"/><stop style="stop-color:#cacccd;stop-opacity:1;" offset="0.78125"/><stop style="stop-color:#c9cbcd;stop-opacity:1;" offset="0.789062"/><stop style="stop-color:#c9cbcc;stop-opacity:1;" offset="0.796875"/><stop style="stop-color:#c8cacc;stop-opacity:1;" offset="0.804688"/><stop style="stop-color:#c8c9cb;stop-opacity:1;" offset="0.8125"/><stop style="stop-color:#c7c9cb;stop-opacity:1;" offset="0.820312"/><stop style="stop-color:#c7c8ca;stop-opacity:1;" offset="0.828125"/><stop style="stop-color:#c6c8ca;stop-opacity:1;" offset="0.835938"/><stop style="stop-color:#c6c7c9;stop-opacity:1;" offset="0.84375"/><stop style="stop-color:#c5c7c9;stop-opacity:1;" offset="0.851562"/><stop style="stop-color:#c5c6c8;stop-opacity:1;" offset="0.859375"/><stop style="stop-color:#c4c6c8;stop-opacity:1;" offset="0.867188"/><stop style="stop-color:#c4c5c7;stop-opacity:1;" offset="0.875"/><stop style="stop-color:#c3c5c7;stop-opacity:1;" offset="0.882812"/><stop style="stop-color:#c3c4c6;stop-opacity:1;" offset="0.890625"/><stop style="stop-color:#c2c4c6;stop-opacity:1;" offset="0.898438"/><stop style="stop-color:#c1c3c5;stop-opacity:1;" offset="0.90625"/><stop style="stop-color:#c1c3c5;stop-opacity:1;" offset="0.914062"/><stop style="stop-color:#c0c2c4;stop-opacity:1;" offset="0.921875"/><stop style="stop-color:#c0c2c4;stop-opacity:1;" offset="0.929688"/><stop style="stop-color:#bfc1c3;stop-opacity:1;" offset="0.9375"/><stop style="stop-color:#bfc1c3;stop-opacity:1;" offset="0.945312"/><stop style="stop-color:#bec0c2;stop-opacity:1;" offset="0.953125"/><stop style="stop-color:#bec0c2;stop-opacity:1;" offset="0.960938"/><stop style="stop-color:#bdbfc1;stop-opacity:1;" offset="0.96875"/><stop style="stop-color:#bdbfc1;stop-opacity:1;" offset="0.976562"/><stop style="stop-color:#bcbec0;stop-opacity:1;" offset="0.984375"/><stop style="stop-color:#bcbec0;stop-opacity:1;" offset="1"/></linearGradient><clipPath id="a118ee0819"><path d="M 89.101562 27 L 106 27 L 106 207.722656 L 89.101562 207.722656 Z M 89.101562 27 "/></clipPath><clipPath id="0a9c896d38"><path d="M 96.839844 27.527344 C 95.546875 28.058594 94.214844 29.871094 93.027344 32.011719 C 90.378906 36.78125 89.078125 42.175781 89.101562 47.632812 C 89.28125 88 90.988281 151.789062 90.988281 151.789062 L 92.761719 150.84375 L 91.96875 207.664062 C 96.976562 206.363281 100.941406 202.871094 102.957031 198.378906 C 103.925781 196.21875 103.574219 193.550781 103.535156 191.058594 L 103.25 170.460938 L 101.496094 167.28125 L 101.496094 146.199219 L 103.050781 145.375 L 103.617188 144.339844 C 104.0625 126.5625 105.1875 79.730469 105.332031 47.558594 C 105.355469 42.101562 103.824219 37.570312 101.847656 32.21875 C 100.832031 29.484375 98.6875 28.410156 97.828125 27.703125 L 97.742188 27.703125 C 97.496094 27.703125 97.089844 27.425781 96.839844 27.527344 Z M 97.503906 156.675781 C 98.207031 156.675781 98.773438 157.246094 98.773438 157.945312 L 98.773438 192.675781 C 98.773438 193.375 98.207031 193.945312 97.503906 193.945312 C 96.800781 193.945312 96.234375 193.375 96.234375 192.675781 L 96.234375 157.945312 C 96.234375 157.246094 96.800781 156.675781 97.503906 156.675781 Z M 97.503906 156.675781 "/></clipPath><linearGradient x1="124.906998" gradientTransform="matrix(0,-0.721177,0.721177,0,89.101542,207.664075)" y1="-0.00000736652" x2="124.906998" gradientUnits="userSpaceOnUse" y2="22.537311" id="4d0d5c1b60"><stop style="stop-color:#e4e4e4;stop-opacity:1;" offset="0"/><stop style="stop-color:#e4e4e4;stop-opacity:1;" offset="0.125"/><stop style="stop-color:#e4e4e4;stop-opacity:1;" offset="0.1875"/><stop style="stop-color:#e4e4e4;stop-opacity:1;" offset="0.21875"/><stop style="stop-color:#e4e4e4;stop-opacity:1;" offset="0.226563"/><stop style="stop-color:#e3e3e3;stop-opacity:1;" offset="0.234375"/><stop style="stop-color:#e2e3e3;stop-opacity:1;" offset="0.242188"/><stop style="stop-color:#e2e2e2;stop-opacity:1;" offset="0.25"/><stop style="stop-color:#e1e1e2;stop-opacity:1;" offset="0.257812"/><stop style="stop-color:#e0e1e1;stop-opacity:1;" offset="0.265625"/><stop style="stop-color:#e0e0e0;stop-opacity:1;" offset="0.273438"/><stop style="stop-color:#dfe0e0;stop-opacity:1;" offset="0.28125"/><stop style="stop-color:#dedfdf;stop-opacity:1;" offset="0.289062"/><stop style="stop-color:#dddedf;stop-opacity:1;" offset="0.296875"/><stop style="stop-color:#dddede;stop-opacity:1;" offset="0.304688"/><stop style="stop-color:#dcddde;stop-opacity:1;" offset="0.3125"/><stop style="stop-color:#dbdcdd;stop-opacity:1;" offset="0.320312"/><stop style="stop-color:#dbdcdd;stop-opacity:1;" offset="0.328125"/><stop style="stop-color:#dadbdc;stop-opacity:1;" offset="0.335938"/><stop style="stop-color:#d9dbdb;stop-opacity:1;" offset="0.34375"/><stop style="stop-color:#d8dadb;stop-opacity:1;" offset="0.351562"/><stop style="stop-color:#d8d9da;stop-opacity:1;" offset="0.359375"/><stop style="stop-color:#d7d9da;stop-opacity:1;" offset="0.367188"/><stop style="stop-color:#d6d8d9;stop-opacity:1;" offset="0.375"/><stop style="stop-color:#d5d8d9;stop-opacity:1;" offset="0.382812"/><stop style="stop-color:#d5d7d8;stop-opacity:1;" offset="0.390625"/><stop style="stop-color:#d4d6d8;stop-opacity:1;" offset="0.398438"/><stop style="stop-color:#d3d6d7;stop-opacity:1;" offset="0.40625"/><stop style="stop-color:#d3d5d6;stop-opacity:1;" offset="0.414063"/><stop style="stop-color:#d2d4d6;stop-opacity:1;" offset="0.421875"/><stop style="stop-color:#d1d4d5;stop-opacity:1;" offset="0.429688"/><stop style="stop-color:#d0d3d5;stop-opacity:1;" offset="0.4375"/><stop style="stop-color:#d0d3d4;stop-opacity:1;" offset="0.445313"/><stop style="stop-color:#cfd2d4;stop-opacity:1;" offset="0.453125"/><stop style="stop-color:#ced1d3;stop-opacity:1;" offset="0.460938"/><stop style="stop-color:#ced1d3;stop-opacity:1;" offset="0.46875"/><stop style="stop-color:#cdd0d2;stop-opacity:1;" offset="0.476563"/><stop style="stop-color:#ccd0d1;stop-opacity:1;" offset="0.484375"/><stop style="stop-color:#cbcfd1;stop-opacity:1;" offset="0.492188"/><stop style="stop-color:#cbced0;stop-opacity:1;" offset="0.5"/><stop style="stop-color:#caced0;stop-opacity:1;" offset="0.507812"/><stop style="stop-color:#c9cdcf;stop-opacity:1;" offset="0.515625"/><stop style="stop-color:#c9cccf;stop-opacity:1;" offset="0.523438"/><stop style="stop-color:#c8ccce;stop-opacity:1;" offset="0.53125"/><stop style="stop-color:#c7cbcd;stop-opacity:1;" offset="0.539062"/><stop style="stop-color:#c6cbcd;stop-opacity:1;" offset="0.546875"/><stop style="stop-color:#c6cacc;stop-opacity:1;" offset="0.554688"/><stop style="stop-color:#c5c9cc;stop-opacity:1;" offset="0.5625"/><stop style="stop-color:#c4c9cb;stop-opacity:1;" offset="0.570312"/><stop style="stop-color:#c4c8cb;stop-opacity:1;" offset="0.578125"/><stop style="stop-color:#c3c7ca;stop-opacity:1;" offset="0.585938"/><stop style="stop-color:#c2c7ca;stop-opacity:1;" offset="0.59375"/><stop style="stop-color:#c1c6c9;stop-opacity:1;" offset="0.601562"/><stop style="stop-color:#c1c6c8;stop-opacity:1;" offset="0.609375"/><stop style="stop-color:#c0c5c8;stop-opacity:1;" offset="0.617188"/><stop style="stop-color:#bfc4c7;stop-opacity:1;" offset="0.625"/><stop style="stop-color:#bfc4c7;stop-opacity:1;" offset="0.632812"/><stop style="stop-color:#bec3c6;stop-opacity:1;" offset="0.640625"/><stop style="stop-color:#bdc3c6;stop-opacity:1;" offset="0.648438"/><stop style="stop-color:#bcc2c5;stop-opacity:1;" offset="0.65625"/><stop style="stop-color:#bcc1c5;stop-opacity:1;" offset="0.664062"/><stop style="stop-color:#bbc1c4;stop-opacity:1;" offset="0.671875"/><stop style="stop-color:#bac0c3;stop-opacity:1;" offset="0.679688"/><stop style="stop-color:#babfc3;stop-opacity:1;" offset="0.6875"/><stop style="stop-color:#b9bfc2;stop-opacity:1;" offset="0.695312"/><stop style="stop-color:#b8bec2;stop-opacity:1;" offset="0.703125"/><stop style="stop-color:#b7bec1;stop-opacity:1;" offset="0.710938"/><stop style="stop-color:#b7bdc1;stop-opacity:1;" offset="0.71875"/><stop style="stop-color:#b6bcc0;stop-opacity:1;" offset="0.726562"/><stop style="stop-color:#b5bcc0;stop-opacity:1;" offset="0.734375"/><stop style="stop-color:#b5bbbf;stop-opacity:1;" offset="0.742188"/><stop style="stop-color:#b4bbbe;stop-opacity:1;" offset="0.75"/><stop style="stop-color:#b3babe;stop-opacity:1;" offset="0.757812"/><stop style="stop-color:#b2b9bd;stop-opacity:1;" offset="0.765625"/><stop style="stop-color:#b2b9bd;stop-opacity:1;" offset="0.773438"/><stop style="stop-color:#b1b8bc;stop-opacity:1;" offset="0.78125"/><stop style="stop-color:#b0b7bc;stop-opacity:1;" offset="0.789062"/><stop style="stop-color:#b0b7bb;stop-opacity:1;" offset="0.796875"/><stop style="stop-color:#afb6ba;stop-opacity:1;" offset="0.804688"/><stop style="stop-color:#aeb6ba;stop-opacity:1;" offset="0.8125"/><stop style="stop-color:#adb5b9;stop-opacity:1;" offset="0.820312"/><stop style="stop-color:#adb4b9;stop-opacity:1;" offset="0.828125"/><stop style="stop-color:#acb4b8;stop-opacity:1;" offset="0.835938"/><stop style="stop-color:#abb3b8;stop-opacity:1;" offset="0.84375"/><stop style="stop-color:#abb3b7;stop-opacity:1;" offset="0.851562"/><stop style="stop-color:#aab2b7;stop-opacity:1;" offset="0.859375"/><stop style="stop-color:#a9b1b6;stop-opacity:1;" offset="0.867188"/><stop style="stop-color:#a8b1b5;stop-opacity:1;" offset="0.875"/><stop style="stop-color:#a8b0b5;stop-opacity:1;" offset="0.882812"/><stop style="stop-color:#a7afb4;stop-opacity:1;" offset="0.890625"/><stop style="stop-color:#a6afb4;stop-opacity:1;" offset="0.898437"/><stop style="stop-color:#a6aeb3;stop-opacity:1;" offset="0.90625"/><stop style="stop-color:#a5aeb3;stop-opacity:1;" offset="0.914062"/><stop style="stop-color:#a4adb2;stop-opacity:1;" offset="0.921875"/><stop style="stop-color:#a4adb2;stop-opacity:1;" offset="0.9375"/><stop style="stop-color:#a4adb2;stop-opacity:1;" offset="1"/></linearGradient><clipPath id="6a18acc4be"><path d="M 89.101562 72 L 106.351562 72 L 106.351562 197 L 89.101562 197 Z M 89.101562 72 "/></clipPath><filter x="0%" y="0%" width="100%" filterUnits="objectBoundingBox" id="8c90ab0f3f" height="100%"><feColorMatrix values="0 0 0 0 1 0 0 0 0 1 0 0 0 0 1 0 0 0 1 0" type="matrix" in="SourceGraphic"/></filter><clipPath id="73fa420ed4"><path d="M 0.101562 0 L 17 0 L 17 124 L 0.101562 124 Z M 0.101562 0 "/></clipPath><clipPath id="33dd1e8072"><rect x="0" width="18" y="0" height="125"/></clipPath><clipPath id="c33b9124d8"><path d="M 94 27 L 106.351562 27 L 106.351562 199 L 94 199 Z M 94 27 "/></clipPath><clipPath id="5468438a64"><path d="M 218.023438 27.3125 L 234 27.3125 L 234 208 L 218.023438 208 Z M 218.023438 27.3125 "/></clipPath><clipPath id="b6463b5c62"><path d="M 219 27.3125 L 235.273438 27.3125 L 235.273438 208 L 219 208 Z M 219 27.3125 "/></clipPath></defs><g id="81d2cfd23c"><path style=" stroke:none;fill-rule:nonzero;fill:#9fa6a9;fill-opacity:1;" d="M 114.550781 326.957031 C 112.699219 326.957031 111.199219 325.457031 111.199219 323.609375 L 111.199219 214.875 C 111.199219 213.023438 112.699219 211.527344 114.550781 211.527344 C 116.398438 211.527344 117.898438 213.023438 117.898438 214.875 L 117.898438 323.609375 C 117.898438 325.457031 116.398438 326.957031 114.550781 326.957031 "/><path style=" stroke:none;fill-rule:nonzero;fill:#9fa6a9;fill-opacity:1;" d="M 138.128906 326.957031 C 136.28125 326.957031 134.78125 325.457031 134.78125 323.609375 L 134.78125 310.652344 C 134.78125 308.804688 136.28125 307.304688 138.128906 307.304688 C 139.980469 307.304688 141.476562 308.804688 141.476562 310.652344 L 141.476562 323.609375 C 141.476562 325.457031 139.980469 326.957031 138.128906 326.957031 "/><path style=" stroke:none;fill-rule:nonzero;fill:#9fa6a9;fill-opacity:1;" d="M 138.128906 298.714844 C 136.28125 298.714844 134.78125 297.214844 134.78125 295.363281 L 134.78125 214.875 C 134.78125 213.027344 136.28125 211.527344 138.128906 211.527344 C 139.980469 211.527344 141.476562 213.027344 141.476562 214.875 L 141.476562 295.363281 C 141.476562 297.214844 139.980469 298.714844 138.128906 298.714844 "/><path style=" stroke:none;fill-rule:nonzero;fill:#9fa6a9;fill-opacity:1;" d="M 161.710938 326.957031 C 159.863281 326.957031 158.363281 325.457031 158.363281 323.609375 L 158.363281 310.652344 C 158.363281 308.804688 159.863281 307.304688 161.710938 307.304688 C 163.558594 307.304688 165.058594 308.804688 165.058594 310.652344 L 165.058594 323.609375 C 165.058594 325.457031 163.558594 326.957031 161.710938 326.957031 "/><path style=" stroke:none;fill-rule:nonzero;fill:#9fa6a9;fill-opacity:1;" d="M 161.710938 298.714844 C 159.863281 298.714844 158.363281 297.214844 158.363281 295.363281 L 158.363281 214.875 C 158.363281 213.027344 159.863281 211.527344 161.710938 211.527344 C 163.558594 211.527344 165.058594 213.027344 165.058594 214.875 L 165.058594 295.363281 C 165.058594 297.214844 163.558594 298.714844 161.710938 298.714844 "/><path style=" stroke:none;fill-rule:nonzero;fill:#9fa6a9;fill-opacity:1;" d="M 185.292969 326.957031 C 183.441406 326.957031 181.945312 325.457031 181.945312 323.609375 L 181.945312 214.875 C 181.945312 213.023438 183.441406 211.527344 185.292969 211.527344 C 187.140625 211.527344 188.640625 213.023438 188.640625 214.875 L 188.640625 323.609375 C 188.640625 325.457031 187.140625 326.957031 185.292969 326.957031 "/><path style=" stroke:none;fill-rule:nonzero;fill:#9fa6a9;fill-opacity:1;" d="M 208.875 326.957031 C 207.023438 326.957031 205.523438 325.457031 205.523438 323.609375 L 205.523438 310.652344 C 205.523438 308.804688 207.023438 307.304688 208.875 307.304688 C 210.722656 307.304688 212.222656 308.804688 212.222656 310.652344 L 212.222656 323.609375 C 212.222656 325.457031 210.722656 326.957031 208.875 326.957031 "/><path style=" stroke:none;fill-rule:nonzero;fill:#9fa6a9;fill-opacity:1;" d="M 208.875 247.710938 C 207.023438 247.710938 205.523438 246.210938 205.523438 244.363281 L 205.523438 214.875 C 205.523438 213.023438 207.023438 211.527344 208.875 211.527344 C 210.722656 211.527344 212.222656 213.023438 212.222656 214.875 L 212.222656 244.363281 C 212.222656 246.210938 210.722656 247.710938 208.875 247.710938 "/><path style=" stroke:none;fill-rule:nonzero;fill:#9fa6a9;fill-opacity:1;" d="M 90.96875 326.957031 C 89.117188 326.957031 87.621094 325.457031 87.621094 323.609375 L 87.621094 310.652344 C 87.621094 308.804688 89.117188 307.304688 90.96875 307.304688 C 92.816406 307.304688 94.316406 308.804688 94.316406 310.652344 L 94.316406 323.609375 C 94.316406 325.457031 92.816406 326.957031 90.96875 326.957031 "/><path style=" stroke:none;fill-rule:nonzero;fill:#9fa6a9;fill-opacity:1;" d="M 90.96875 298.714844 C 89.117188 298.714844 87.621094 297.214844 87.621094 295.363281 L 87.621094 214.875 C 87.621094 213.027344 89.117188 211.527344 90.96875 211.527344 C 92.816406 211.527344 94.316406 213.027344 94.316406 214.875 L 94.316406 295.363281 C 94.316406 297.214844 92.816406 298.714844 90.96875 298.714844 "/><g clip-rule="nonzero" clip-path="url(#e3b4a7930a)"><path style=" stroke:none;fill-rule:nonzero;fill:#9fa6a9;fill-opacity:1;" d="M 83.734375 197.699219 L 68.710938 197.699219 C 66.863281 197.699219 65.363281 196.199219 65.363281 194.351562 C 65.363281 192.5 66.863281 191 68.710938 191 L 83.734375 191 C 85.585938 191 87.085938 192.5 87.085938 194.351562 C 87.085938 196.199219 85.585938 197.699219 83.734375 197.699219 "/></g><g clip-rule="nonzero" clip-path="url(#fb17867f33)"><path style=" stroke:none;fill-rule:nonzero;fill:#9fa6a9;fill-opacity:1;" d="M 68.710938 212.722656 C 66.863281 212.722656 65.363281 211.222656 65.363281 209.371094 L 65.363281 194.351562 C 65.363281 192.5 66.863281 191 68.710938 191 C 70.5625 191 72.0625 192.5 72.0625 194.351562 L 72.0625 209.371094 C 72.0625 211.222656 70.5625 212.722656 68.710938 212.722656 "/></g><path style=" stroke:none;fill-rule:nonzero;fill:#9fa6a9;fill-opacity:1;" d="M 232.457031 326.957031 C 230.605469 326.957031 229.105469 325.457031 229.105469 323.609375 L 229.105469 310.34375 C 229.105469 308.496094 230.605469 306.996094 232.457031 306.996094 C 234.304688 306.996094 235.804688 308.496094 235.804688 310.34375 L 235.804688 323.609375 C 235.804688 325.457031 234.304688 326.957031 232.457031 326.957031 "/><path style=" stroke:none;fill-rule:nonzero;fill:#9fa6a9;fill-opacity:1;" d="M 232.457031 234.261719 C 230.605469 234.261719 229.105469 232.761719 229.105469 230.910156 L 229.105469 214.875 C 229.105469 213.023438 230.605469 211.527344 232.457031 211.527344 C 234.304688 211.527344 235.804688 213.023438 235.804688 214.875 L 235.804688 230.910156 C 235.804688 232.761719 234.304688 234.261719 232.457031 234.261719 "/><path style=" stroke:none;fill-rule:nonzero;fill:#9fa6a9;fill-opacity:1;" d="M 254.710938 212.722656 C 252.859375 212.722656 251.363281 211.222656 251.363281 209.371094 L 251.363281 194.351562 C 251.363281 192.5 252.859375 191 254.710938 191 C 256.558594 191 258.058594 192.5 258.058594 194.351562 L 258.058594 209.371094 C 258.058594 211.222656 256.558594 212.722656 254.710938 212.722656 "/><path style=" stroke:none;fill-rule:nonzero;fill:#9fa6a9;fill-opacity:1;" d="M 254.710938 197.699219 L 239.6875 197.699219 C 237.839844 197.699219 236.339844 196.199219 236.339844 194.351562 C 236.339844 192.5 237.839844 191 239.6875 191 L 254.710938 191 C 256.558594 191 258.058594 192.5 258.058594 194.351562 C 258.058594 196.199219 256.558594 197.699219 254.710938 197.699219 "/><g clip-rule="nonzero" clip-path="url(#b6ce34e0c3)"><path style=" stroke:none;fill-rule:nonzero;fill:#9fa6a9;fill-opacity:1;" d="M 254.710938 347.480469 L 239.6875 347.480469 C 237.839844 347.480469 236.339844 345.984375 236.339844 344.132812 C 236.339844 342.285156 237.839844 340.785156 239.6875 340.785156 L 254.710938 340.785156 C 256.558594 340.785156 258.058594 342.285156 258.058594 344.132812 C 258.058594 345.984375 256.558594 347.480469 254.710938 347.480469 "/></g><g clip-rule="nonzero" clip-path="url(#0b5c880989)"><path style=" stroke:none;fill-rule:nonzero;fill:#9fa6a9;fill-opacity:1;" d="M 254.710938 347.480469 C 252.859375 347.480469 251.363281 345.984375 251.363281 344.132812 L 251.363281 329.109375 C 251.363281 327.261719 252.859375 325.761719 254.710938 325.761719 C 256.558594 325.761719 258.058594 327.261719 258.058594 329.109375 L 258.058594 344.132812 C 258.058594 345.984375 256.558594 347.480469 254.710938 347.480469 "/></g><g clip-rule="nonzero" clip-path="url(#e4a31cec29)"><path style=" stroke:none;fill-rule:nonzero;fill:#9fa6a9;fill-opacity:1;" d="M 68.710938 347.480469 C 66.863281 347.480469 65.363281 345.984375 65.363281 344.132812 L 65.363281 329.109375 C 65.363281 327.261719 66.863281 325.761719 68.710938 325.761719 C 70.5625 325.761719 72.0625 327.261719 72.0625 329.109375 L 72.0625 344.132812 C 72.0625 345.984375 70.5625 347.480469 68.710938 347.480469 "/></g><g clip-rule="nonzero" clip-path="url(#612a385fbc)"><path style=" stroke:none;fill-rule:nonzero;fill:#9fa6a9;fill-opacity:1;" d="M 83.734375 347.480469 L 68.710938 347.480469 C 66.863281 347.480469 65.363281 345.984375 65.363281 344.132812 C 65.363281 342.285156 66.863281 340.785156 68.710938 340.785156 L 83.734375 340.785156 C 85.585938 340.785156 87.085938 342.285156 87.085938 344.132812 C 87.085938 345.984375 85.585938 347.480469 83.734375 347.480469 "/></g><path style=" stroke:none;fill-rule:nonzero;fill:#9fa6a9;fill-opacity:1;" d="M 239.480469 233.664062 C 230.011719 233.664062 220.539062 237.269531 213.332031 244.476562 C 198.914062 258.898438 198.914062 282.359375 213.332031 296.777344 C 227.75 311.195312 251.210938 311.195312 265.632812 296.777344 C 280.050781 282.359375 280.050781 258.898438 265.632812 244.476562 C 258.421875 237.269531 248.949219 233.664062 239.480469 233.664062 Z M 239.480469 314.304688 C 227.8125 314.304688 216.84375 309.761719 208.59375 301.511719 C 200.347656 293.261719 195.804688 282.292969 195.804688 270.628906 C 195.804688 258.960938 200.347656 247.992188 208.59375 239.742188 C 216.84375 231.492188 227.8125 226.949219 239.480469 226.949219 C 251.148438 226.949219 262.117188 231.492188 270.367188 239.742188 C 278.617188 247.992188 283.160156 258.960938 283.160156 270.628906 C 283.160156 282.292969 278.617188 293.261719 270.367188 301.511719 C 262.117188 309.761719 251.148438 314.304688 239.480469 314.304688 "/><g clip-rule="nonzero" clip-path="url(#6fd848d82c)"><path style=" stroke:none;fill-rule:nonzero;fill:#9fa6a9;fill-opacity:1;" d="M 298.960938 340.453125 C 296.3125 340.453125 293.664062 339.445312 291.644531 337.425781 L 260.253906 306.035156 C 258.945312 304.726562 258.945312 302.605469 260.253906 301.300781 C 261.5625 299.992188 263.679688 299.992188 264.988281 301.300781 L 296.382812 332.691406 C 297.804688 334.117188 300.121094 334.117188 301.546875 332.691406 C 302.96875 331.269531 302.96875 328.953125 301.546875 327.527344 L 270.152344 296.132812 C 268.84375 294.828125 268.84375 292.707031 270.152344 291.398438 C 271.460938 290.089844 273.582031 290.089844 274.886719 291.398438 L 306.28125 322.792969 C 310.316406 326.828125 310.316406 333.394531 306.28125 337.425781 C 304.265625 339.445312 301.613281 340.453125 298.960938 340.453125 "/></g><path style=" stroke:none;fill-rule:nonzero;fill:#9fa6a9;fill-opacity:1;" d="M 239.480469 246.082031 C 233.191406 246.082031 226.902344 248.476562 222.117188 253.265625 C 212.542969 262.839844 212.542969 278.417969 222.117188 287.992188 C 226.902344 292.777344 233.191406 295.171875 239.480469 295.171875 C 245.769531 295.171875 252.058594 292.78125 256.84375 287.992188 C 261.480469 283.355469 264.035156 277.1875 264.035156 270.628906 C 264.035156 264.066406 261.480469 257.902344 256.84375 253.265625 C 252.058594 248.476562 245.769531 246.082031 239.480469 246.082031 Z M 239.480469 301.867188 C 231.476562 301.867188 223.472656 298.820312 217.382812 292.726562 C 205.195312 280.542969 205.195312 260.714844 217.382812 248.527344 C 229.566406 236.34375 249.394531 236.34375 261.578125 248.527344 C 267.484375 254.429688 270.734375 262.28125 270.734375 270.628906 C 270.734375 278.976562 267.484375 286.824219 261.578125 292.726562 C 255.488281 298.820312 247.484375 301.867188 239.480469 301.867188 "/><g clip-rule="nonzero" clip-path="url(#75028e981b)"><path style=" stroke:none;fill-rule:nonzero;fill:#a4adb2;fill-opacity:1;" d="M 190.847656 174.546875 C 188.964844 174.546875 187.175781 175.046875 185.550781 175.941406 C 184.765625 176.375 184.015625 176.902344 183.3125 177.515625 C 180.296875 179.21875 177.589844 178.878906 176.667969 174.546875 C 175.519531 169.164062 169.125 129.488281 167.648438 111.945312 C 166.898438 103.027344 166.320312 96.191406 165.929688 91.625 C 166.328125 77.164062 167.078125 50.9375 167.308594 47.519531 C 167.632812 42.761719 168.457031 39.320312 168.457031 39.320312 C 170.585938 36.535156 172.878906 32.4375 170.917969 29.976562 C 168.945312 27.515625 167.0625 28.335938 167.0625 28.335938 C 165.503906 26.699219 163.671875 27.515625 163.671875 27.515625 C 165.605469 28.496094 167.472656 31.121094 166.984375 32.925781 C 166.492188 34.730469 165.179688 36.367188 165.011719 38.996094 C 164.847656 41.621094 162.226562 82.113281 162.226562 82.113281 L 161.902344 82.351562 L 161.578125 82.113281 C 161.578125 82.113281 158.960938 41.621094 158.792969 38.996094 C 158.628906 36.375 157.320312 34.730469 156.824219 32.925781 C 156.332031 31.121094 158.195312 28.503906 160.136719 27.515625 C 160.136719 27.515625 158.300781 26.691406 156.742188 28.335938 C 156.742188 28.335938 154.851562 27.515625 152.890625 29.976562 C 150.925781 32.4375 153.214844 36.535156 155.351562 39.320312 C 155.351562 39.320312 156.171875 42.761719 156.5 47.519531 C 156.738281 50.9375 157.480469 77.164062 157.875 91.625 C 157.488281 96.199219 156.910156 103.027344 156.160156 111.945312 C 154.6875 129.488281 148.292969 169.164062 147.136719 174.546875 C 146.214844 178.878906 143.507812 179.210938 140.492188 177.515625 C 139.792969 176.902344 139.050781 176.375 138.253906 175.941406 C 136.632812 175.046875 134.84375 174.546875 132.957031 174.546875 C 125.667969 174.546875 119.738281 181.988281 119.738281 191.140625 C 119.738281 200.28125 125.667969 207.722656 132.964844 207.722656 C 140.023438 207.722656 145.8125 200.75 146.171875 192.003906 C 146.1875 192.183594 146.191406 192.285156 146.191406 192.285156 C 147.039062 183.433594 149.117188 179.988281 151.085938 180.15625 C 152.320312 180.257812 154.324219 180.234375 155.652344 180.199219 C 156.460938 180.175781 157.175781 179.679688 157.472656 178.921875 C 157.847656 177.960938 157.445312 176.878906 156.527344 176.402344 C 155.503906 175.867188 154.167969 175.167969 153.046875 174.546875 C 150.921875 173.371094 151.410156 171.625 152.066406 167.851562 C 152.722656 164.078125 160.921875 103.75 160.921875 103.75 L 161.910156 103.199219 L 162.898438 103.75 C 162.898438 103.75 171.097656 164.078125 171.753906 167.851562 C 172.410156 171.625 172.902344 173.371094 170.773438 174.546875 C 169.660156 175.160156 168.320312 175.867188 167.292969 176.402344 C 166.378906 176.878906 165.972656 177.960938 166.347656 178.921875 C 166.644531 179.671875 167.359375 180.175781 168.167969 180.199219 C 169.496094 180.234375 171.5 180.257812 172.734375 180.15625 C 174.707031 179.988281 176.777344 183.433594 177.628906 192.285156 C 177.628906 192.285156 177.636719 192.183594 177.648438 192.003906 C 178.011719 200.75 183.796875 207.722656 190.855469 207.722656 C 198.152344 207.722656 204.082031 200.28125 204.082031 191.140625 C 204.074219 181.988281 198.144531 174.546875 190.847656 174.546875 Z M 168.117188 35.703125 C 170.570312 31.988281 167.800781 29.152344 167.800781 29.152344 C 172.714844 31.921875 168.117188 35.703125 168.117188 35.703125 Z M 155.695312 35.703125 C 155.695312 35.703125 151.101562 31.921875 156.015625 29.152344 C 156.007812 29.152344 153.238281 31.988281 155.695312 35.703125 Z M 132.964844 205.046875 C 127.148438 205.046875 122.421875 198.804688 122.421875 191.140625 C 122.421875 183.46875 127.15625 177.234375 132.964844 177.234375 C 138.773438 177.234375 143.507812 183.476562 143.507812 191.140625 C 143.507812 198.804688 138.78125 205.046875 132.964844 205.046875 Z M 190.847656 205.046875 C 185.03125 205.046875 180.304688 198.804688 180.304688 191.140625 C 180.304688 183.46875 185.039062 177.234375 190.847656 177.234375 C 196.65625 177.234375 201.390625 183.476562 201.390625 191.140625 C 201.398438 198.804688 196.664062 205.046875 190.847656 205.046875 Z M 190.847656 205.046875 "/></g><g clip-rule="nonzero" clip-path="url(#5d2ce3ff19)"><g clip-rule="nonzero" clip-path="url(#fd1cd964be)"><path style=" stroke:none;fill-rule:nonzero;fill:url(#8576b7965b);" d="M 120.300781 31.433594 L 120.300781 206.71875 L 202.589844 206.71875 L 202.589844 31.433594 Z M 120.300781 31.433594 "/></g></g><g clip-rule="nonzero" clip-path="url(#a118ee0819)"><g clip-rule="nonzero" clip-path="url(#0a9c896d38)"><path style=" stroke:none;fill-rule:nonzero;fill:url(#4d0d5c1b60);" d="M 89.101562 207.664062 L 105.355469 207.664062 L 105.355469 27.425781 L 89.101562 27.425781 Z M 89.101562 207.664062 "/></g></g><g clip-rule="nonzero" clip-path="url(#6a18acc4be)"><g mask="url(#abd008754d)" transform="matrix(1,0,0,1,89,72)"><g clip-path="url(#33dd1e8072)"><g clip-rule="nonzero" clip-path="url(#73fa420ed4)"><path style=" stroke:none;fill-rule:nonzero;fill:#e7e7e7;fill-opacity:1;" d="M 0.761719 25.414062 C 0.605469 17.308594 0.464844 8.933594 0.351562 0.765625 L 16.816406 6.773438 C 16.6875 14.953125 16.539062 23.222656 16.382812 31.113281 Z M 7.261719 120.9375 C 7.242188 120.855469 7.234375 120.765625 7.234375 120.675781 L 7.234375 103.917969 L 3.433594 102.527344 L 3.195312 119.457031 Z M 15.40625 119.335938 L 15.21875 106.832031 L 9.773438 104.84375 L 9.773438 120.675781 C 9.773438 121.082031 9.578125 121.441406 9.277344 121.675781 L 14.878906 123.71875 C 15.242188 122.3125 15.429688 120.84375 15.40625 119.335938 Z M 9.773438 89.480469 L 9.773438 98.679688 L 15.128906 100.632812 L 15.082031 97.632812 L 13.246094 95.328125 L 13.246094 90.746094 Z M 7.234375 97.753906 L 7.234375 88.554688 L 3.644531 87.242188 L 3.515625 96.394531 Z M 7.234375 97.753906 "/></g></g><mask id="abd008754d"><g filter="url(#8c90ab0f3f)"><rect x="0" width="375" y="0" height="374.999991" style="fill:#000000;fill-opacity:0.5;stroke:none;"/></g></mask></g></g><g clip-rule="nonzero" clip-path="url(#c33b9124d8)"><path style=" stroke:none;fill-rule:nonzero;fill:#9fa6a9;fill-opacity:1;" d="M 97.585938 27.371094 L 97.667969 27.371094 C 99.1875 27.371094 100.8125 29.457031 102.226562 32.011719 C 104.875 36.78125 106.175781 42.175781 106.152344 47.632812 C 106.007812 79.804688 104.894531 126.875 104.449219 144.652344 L 103.03125 145.335938 C 103.503906 126.292969 104.570312 79.121094 104.710938 47.625 C 104.734375 42.347656 103.4375 37.167969 100.964844 32.710938 C 99.511719 30.359375 98.035156 28.675781 96.84375 27.53125 C 97.089844 27.429688 97.339844 27.371094 97.585938 27.371094 Z M 100.804688 148.5625 L 100.804688 167.828125 L 102.648438 170.148438 L 102.964844 191.335938 C 102.964844 191.453125 102.949219 191.5625 102.949219 191.679688 L 102.949219 198.375 C 103.917969 196.214844 104.445312 193.828125 104.40625 191.335938 L 104.082031 169.632812 L 102.246094 167.328125 L 102.246094 145.800781 L 94.230469 149.839844 Z M 100.804688 148.5625 "/></g><path style=" stroke:none;fill-rule:nonzero;fill:#a4adb2;fill-opacity:1;" d="M 91.824219 132.152344 L 102.695312 132.152344 C 103.070312 132.152344 103.375 132.457031 103.375 132.832031 C 103.375 133.207031 103.070312 133.511719 102.695312 133.511719 L 91.824219 133.511719 C 91.449219 133.511719 91.144531 133.207031 91.144531 132.832031 C 91.144531 132.457031 91.449219 132.152344 91.824219 132.152344 Z M 91.144531 127.394531 C 91.144531 127.769531 91.449219 128.074219 91.824219 128.074219 L 102.695312 128.074219 C 103.070312 128.074219 103.375 127.769531 103.375 127.394531 C 103.375 127.019531 103.070312 126.714844 102.695312 126.714844 L 91.824219 126.714844 C 91.449219 126.714844 91.144531 127.019531 91.144531 127.394531 Z M 91.144531 121.957031 C 91.144531 122.332031 91.449219 122.636719 91.824219 122.636719 L 102.695312 122.636719 C 103.070312 122.636719 103.375 122.332031 103.375 121.957031 C 103.375 121.582031 103.070312 121.277344 102.695312 121.277344 L 91.824219 121.277344 C 91.449219 121.277344 91.144531 121.582031 91.144531 121.957031 Z M 91.144531 116.519531 C 91.144531 116.894531 91.449219 117.195312 91.824219 117.195312 L 102.695312 117.195312 C 103.070312 117.195312 103.375 116.894531 103.375 116.519531 C 103.375 116.144531 103.070312 115.839844 102.695312 115.839844 L 91.824219 115.839844 C 91.449219 115.839844 91.144531 116.144531 91.144531 116.519531 Z M 91.144531 111.078125 C 91.144531 111.453125 91.449219 111.757812 91.824219 111.757812 L 102.695312 111.757812 C 103.070312 111.757812 103.375 111.453125 103.375 111.078125 C 103.375 110.703125 103.070312 110.398438 102.695312 110.398438 L 91.824219 110.398438 C 91.449219 110.398438 91.144531 110.703125 91.144531 111.078125 Z M 91.144531 105.640625 C 91.144531 106.015625 91.449219 106.320312 91.824219 106.320312 L 102.695312 106.320312 C 103.070312 106.320312 103.375 106.015625 103.375 105.640625 C 103.375 105.265625 103.070312 104.960938 102.695312 104.960938 L 91.824219 104.960938 C 91.449219 104.960938 91.144531 105.265625 91.144531 105.640625 Z M 91.144531 100.203125 C 91.144531 100.578125 91.449219 100.882812 91.824219 100.882812 L 102.695312 100.882812 C 103.070312 100.882812 103.375 100.578125 103.375 100.203125 C 103.375 99.828125 103.070312 99.523438 102.695312 99.523438 L 91.824219 99.523438 C 91.449219 99.523438 91.144531 99.828125 91.144531 100.203125 Z M 91.144531 94.761719 C 91.144531 95.136719 91.449219 95.441406 91.824219 95.441406 L 102.695312 95.441406 C 103.070312 95.441406 103.375 95.136719 103.375 94.761719 C 103.375 94.386719 103.070312 94.085938 102.695312 94.085938 L 91.824219 94.085938 C 91.449219 94.085938 91.144531 94.386719 91.144531 94.761719 Z M 96.734375 38.613281 L 96.734375 90.128906 C 96.734375 90.808594 97.078125 91.363281 97.503906 91.363281 C 97.929688 91.363281 98.273438 90.808594 98.273438 90.128906 L 98.273438 38.613281 C 98.273438 37.933594 97.929688 37.378906 97.503906 37.378906 C 97.078125 37.378906 96.734375 37.933594 96.734375 38.613281 Z M 96.734375 38.613281 "/><g clip-rule="nonzero" clip-path="url(#5468438a64)"><path style=" stroke:none;fill-rule:nonzero;fill:#a7a9ac;fill-opacity:1;" d="M 220.238281 62.625 C 219.882812 59.753906 219.511719 56.785156 219.242188 53.84375 C 218.164062 42.117188 219.519531 32.953125 222.871094 29.328125 C 223.9375 28.175781 225.171875 27.617188 226.648438 27.617188 C 228.125 27.617188 229.324219 28.175781 230.316406 29.328125 C 233.4375 32.953125 234.203125 42.117188 232.371094 53.84375 C 231.910156 56.785156 231.351562 59.753906 230.8125 62.625 C 229.746094 68.285156 228.644531 74.132812 228.289062 79.949219 C 227.835938 87.617188 228.015625 95.523438 228.921875 105.910156 C 229.84375 116.417969 229.015625 129.699219 227.457031 140.636719 C 225.566406 153.875 224.320312 167.171875 223.492188 180.484375 L 221.949219 206.742188 C 221.914062 207.3125 221.4375 207.757812 220.863281 207.757812 C 220.289062 207.757812 219.839844 207.3125 219.84375 206.742188 L 219.988281 180.445312 C 220.015625 167.144531 219.625 153.859375 218.585938 140.636719 C 217.726562 129.699219 217.753906 116.417969 219.347656 105.910156 C 220.921875 95.523438 221.609375 87.617188 221.648438 79.949219 C 221.664062 74.132812 220.9375 68.285156 220.238281 62.625 Z M 220.238281 62.625 "/></g><g clip-rule="nonzero" clip-path="url(#b6463b5c62)"><path style=" stroke:none;fill-rule:nonzero;fill:#e4e4e4;fill-opacity:1;" d="M 233.058594 62.625 C 233.414062 59.753906 233.785156 56.785156 234.054688 53.84375 C 235.132812 42.117188 233.777344 32.953125 230.425781 29.328125 C 229.359375 28.175781 228.125 27.617188 226.648438 27.617188 C 225.171875 27.617188 223.972656 28.175781 222.980469 29.328125 C 219.859375 32.953125 219.09375 42.117188 220.925781 53.84375 C 221.382812 56.785156 221.945312 59.753906 222.484375 62.625 C 223.550781 68.285156 224.652344 74.132812 225.007812 79.949219 C 225.460938 87.617188 225.28125 95.523438 224.371094 105.910156 C 223.453125 116.417969 224.28125 129.699219 225.839844 140.636719 C 227.726562 153.875 228.976562 167.171875 229.804688 180.484375 L 231.347656 206.742188 C 231.382812 207.3125 231.859375 207.757812 232.433594 207.757812 C 233.007812 207.757812 233.457031 207.3125 233.453125 206.742188 L 233.308594 180.445312 C 233.28125 167.144531 233.671875 153.859375 234.710938 140.636719 C 235.566406 129.699219 235.542969 116.417969 233.949219 105.910156 C 232.375 95.523438 231.683594 87.617188 231.648438 79.949219 C 231.628906 74.132812 232.355469 68.285156 233.058594 62.625 Z M 233.058594 62.625 "/></g><path style=" stroke:none;fill-rule:nonzero;fill:#bdbdbd;fill-opacity:1;" d="M 224.035156 29.960938 C 225.710938 27.535156 229.03125 28.261719 230.261719 30.796875 C 233.84375 38.210938 232.980469 47.421875 232.316406 55.636719 C 231.121094 66.820312 229.476562 78.066406 230.660156 89.300781 C 230.9375 93.160156 231.507812 96.953125 232.121094 100.742188 C 231.738281 100.476562 231.292969 100.316406 230.816406 100.320312 L 230.257812 100.320312 C 229.664062 96.757812 229.125 93.179688 228.835938 89.539062 C 227.542969 78.199219 229.265625 66.6875 230.660156 55.460938 C 231.570312 49.777344 233.527344 23.269531 224.035156 29.960938 Z M 232.941406 205.472656 L 232.917969 203.894531 L 232.871094 200.746094 C 232.757812 190.980469 232.472656 178.964844 232.460938 169.238281 C 232.4375 160.222656 233.046875 151.273438 233.804688 142.339844 C 233.429688 142.625 233.007812 142.789062 232.558594 142.792969 L 232.421875 142.792969 C 231.769531 151.574219 231.273438 160.378906 231.378906 169.214844 C 231.457031 178.996094 231.941406 190.933594 232.210938 200.75 C 232.253906 202.148438 232.339844 204.914062 232.378906 206.265625 C 232.378906 206.265625 232.371094 206.589844 232.363281 206.699219 C 232.335938 207.019531 232.246094 207.144531 232.351562 207.253906 C 232.640625 207.585938 232.9375 207.070312 232.953125 206.699219 C 232.960938 206.476562 232.953125 206.410156 232.953125 206.257812 Z M 228.183594 140.558594 C 227.707031 140.558594 227.164062 140.304688 227.046875 139.820312 C 226.976562 139.53125 227.039062 139.246094 227.226562 139.027344 C 227.410156 138.8125 227.6875 138.691406 227.984375 138.691406 L 231.867188 138.691406 C 232.339844 138.691406 232.886719 138.945312 233.003906 139.429688 C 233.074219 139.71875 233.011719 140 232.824219 140.222656 C 232.640625 140.433594 232.363281 140.558594 232.066406 140.558594 Z M 227.320312 134.496094 C 226.84375 134.496094 226.300781 134.242188 226.179688 133.757812 C 226.109375 133.46875 226.175781 133.1875 226.363281 132.964844 C 226.546875 132.75 226.824219 132.628906 227.117188 132.628906 L 232.5 132.628906 C 232.976562 132.628906 233.523438 132.882812 233.640625 133.367188 C 233.710938 133.660156 233.648438 133.9375 233.457031 134.160156 C 233.277344 134.375 233 134.496094 232.703125 134.496094 Z M 226.457031 128.433594 C 225.980469 128.433594 225.4375 128.179688 225.316406 127.699219 C 225.246094 127.40625 225.308594 127.125 225.5 126.90625 C 225.679688 126.691406 225.957031 126.570312 226.253906 126.570312 L 233.140625 126.570312 C 233.613281 126.570312 234.160156 126.820312 234.277344 127.308594 C 234.347656 127.597656 234.285156 127.878906 234.09375 128.097656 C 233.914062 128.3125 233.636719 128.433594 233.339844 128.433594 Z M 225.867188 122.371094 C 225.390625 122.371094 224.847656 122.121094 224.726562 121.636719 C 224.65625 121.34375 224.722656 121.0625 224.910156 120.84375 C 225.09375 120.628906 225.367188 120.507812 225.664062 120.507812 L 233.394531 120.507812 C 233.871094 120.507812 234.414062 120.761719 234.53125 121.246094 C 234.605469 121.535156 234.539062 121.816406 234.351562 122.035156 C 234.167969 122.25 233.894531 122.371094 233.597656 122.371094 Z M 226.226562 116.3125 C 225.753906 116.3125 225.207031 116.058594 225.089844 115.574219 C 225.019531 115.285156 225.082031 115.003906 225.269531 114.78125 C 225.453125 114.566406 225.730469 114.445312 226.027344 114.445312 L 232.910156 114.445312 C 233.386719 114.445312 233.929688 114.699219 234.050781 115.183594 C 234.121094 115.472656 234.054688 115.753906 233.867188 115.976562 C 233.683594 116.1875 233.410156 116.3125 233.113281 116.3125 Z M 226.863281 110.25 C 226.386719 110.25 225.84375 109.996094 225.726562 109.511719 C 225.65625 109.222656 225.71875 108.941406 225.90625 108.71875 C 226.089844 108.507812 226.367188 108.382812 226.664062 108.382812 L 232.046875 108.382812 C 232.523438 108.382812 233.066406 108.636719 233.183594 109.121094 C 233.257812 109.414062 233.191406 109.695312 233.003906 109.914062 C 232.820312 110.128906 232.546875 110.25 232.25 110.25 Z M 227.5 104.1875 C 227.027344 104.1875 226.480469 103.933594 226.363281 103.449219 C 226.292969 103.160156 226.355469 102.878906 226.542969 102.660156 C 226.726562 102.445312 227.003906 102.320312 227.300781 102.320312 L 231.183594 102.320312 C 231.65625 102.320312 232.203125 102.574219 232.320312 103.058594 C 232.390625 103.351562 232.328125 103.632812 232.136719 103.851562 C 231.957031 104.066406 231.679688 104.1875 231.382812 104.1875 Z M 227.5 104.1875 "/></g></svg>